<svg width="189" height="40" viewBox="0 0 189 40" fill="none" xmlns="http://www.w3.org/2000/svg">
<path d="M34.3035 33.9396H6.125V6.06152H34.2996V33.9396H34.3035ZM7.08764 32.9872H33.337V7.0139H7.08764V32.9872Z" fill="white"/>
<path d="M20.2155 0.952381C30.8469 0.952381 39.4684 9.4819 39.4684 20C39.4684 30.5181 30.8469 39.0476 20.2155 39.0476C9.58408 39.0476 0.962643 30.5181 0.962643 20C0.962643 9.4819 9.58408 0.952381 20.2155 0.952381ZM20.2155 0C9.0681 0 0 8.97143 0 20C0 31.0286 9.0681 40 20.2155 40C31.3629 40 40.431 31.0286 40.431 20C40.431 8.97143 31.3629 0 20.2155 0Z" fill="white"/>
<path d="M52.9668 27.3401V12.6201H54.1374V27.3439H52.9668V27.3401Z" fill="white"/>
<path d="M62.7285 27.3401V12.6201H63.9222L72.1432 23.5001C72.2317 23.5992 72.3396 23.7439 72.4705 23.9306C72.6014 24.1173 72.7362 24.3115 72.8825 24.5096C73.0288 24.7115 73.1559 24.8906 73.2714 25.0468H73.36C73.36 24.7877 73.36 24.5325 73.36 24.2734C73.36 24.0144 73.36 23.7592 73.36 23.5001V12.6201H74.5305V27.3439H73.5987L65.1813 16.163C65.0812 16.0334 64.9079 15.8049 64.6615 15.4773C64.4151 15.1496 64.1917 14.8487 63.9877 14.5744H63.8991C63.8991 14.8449 63.8991 15.1115 63.8991 15.3668C63.8991 15.622 63.8991 15.8887 63.8991 16.1592V27.3401H62.7285Z" fill="white"/>
<path d="M86.9367 27.341L81.2109 12.6172H82.4701L86.6364 23.3905C86.7519 23.661 86.8713 23.9696 86.9945 24.3124C87.1177 24.6553 87.2409 24.9943 87.3641 25.3334C87.4874 25.6686 87.5913 25.9658 87.6799 26.2248H87.83C87.9302 25.9658 88.038 25.6686 88.1535 25.3334C88.269 24.9981 88.3922 24.6591 88.5231 24.3124C88.6541 23.9696 88.7696 23.661 88.8697 23.3905L92.9705 12.6172H94.2297L88.5039 27.341H86.9367Z" fill="white"/>
<path d="M100.908 27.3401V12.6201H102.079V27.3439H100.908V27.3401Z" fill="white"/>
<path d="M116.051 27.5993C115.254 27.5993 114.484 27.5346 113.741 27.4051C112.994 27.2755 112.335 27.0508 111.754 26.7308C111.176 26.4108 110.714 25.9727 110.375 25.4203C110.037 24.8679 109.867 24.1631 109.867 23.306C109.867 23.2336 109.867 23.1727 109.867 23.1231C109.867 23.0736 109.875 22.9974 109.89 22.8984H111.084C111.069 22.9708 111.057 23.0584 111.053 23.165C111.045 23.2717 111.042 23.3708 111.042 23.4546C111.042 24.1555 111.257 24.7384 111.692 25.2031C112.127 25.6679 112.709 26.0108 113.441 26.2317C114.172 26.4527 114.969 26.5631 115.839 26.5631C116.028 26.5631 116.317 26.5479 116.706 26.5212C117.095 26.4946 117.518 26.426 117.976 26.3155C118.431 26.2089 118.866 26.0489 119.278 25.8317C119.69 25.6184 120.029 25.3289 120.298 24.9631C120.564 24.5974 120.699 24.1289 120.699 23.5574C120.699 22.986 120.549 22.5098 120.252 22.1289C119.956 21.7517 119.563 21.4393 119.07 21.1955C118.577 20.9517 118.023 20.7422 117.399 20.5631C116.775 20.3841 116.132 20.2165 115.47 20.0603C114.804 19.9041 114.161 19.7289 113.541 19.5346C112.917 19.3403 112.362 19.1003 111.869 18.8146C111.377 18.5289 110.984 18.1631 110.687 17.7212C110.391 17.2793 110.241 16.7346 110.241 16.0908C110.241 15.5765 110.341 15.0889 110.545 14.6317C110.749 14.1746 111.072 13.7784 111.523 13.4393C111.97 13.1041 112.566 12.8374 113.313 12.6469C114.057 12.4527 114.973 12.3574 116.059 12.3574C116.81 12.3574 117.507 12.4374 118.154 12.5936C118.797 12.7498 119.367 12.9898 119.856 13.3136C120.348 13.6336 120.73 14.0489 121.007 14.5479C121.28 15.0469 121.419 15.6489 121.419 16.3498V16.6089H120.248V16.1593C120.248 15.5879 120.067 15.0965 119.705 14.6889C119.343 14.2812 118.858 13.9612 118.254 13.7327C117.645 13.5041 116.968 13.3898 116.213 13.3898C115.085 13.3898 114.168 13.5041 113.467 13.7327C112.767 13.9612 112.251 14.266 111.927 14.6431C111.604 15.0241 111.438 15.4393 111.438 15.9003C111.438 16.445 111.585 16.8946 111.881 17.2527C112.178 17.6108 112.574 17.9041 113.075 18.1327C113.575 18.3612 114.134 18.5631 114.757 18.7346C115.377 18.906 116.02 19.0698 116.679 19.2298C117.337 19.386 117.976 19.565 118.6 19.767C119.22 19.9689 119.782 20.2165 120.283 20.5174C120.784 20.8184 121.18 21.1955 121.477 21.6565C121.773 22.1136 121.919 22.6812 121.919 23.3517C121.919 24.3231 121.669 25.127 121.172 25.7555C120.672 26.3841 119.986 26.8489 119.112 27.1498C118.223 27.4508 117.206 27.5993 116.051 27.5993Z" fill="white"/>
<path d="M129.74 27.3401V12.6201H130.911V27.3439H129.74V27.3401Z" fill="white"/>
<path d="M139.502 27.3401V12.6201H146.683C147.58 12.6201 148.335 12.7611 148.951 13.0392C149.567 13.3173 150.033 13.7173 150.349 14.243C150.669 14.7649 150.826 15.3896 150.826 16.1211C150.826 16.6773 150.734 17.1992 150.545 17.6754C150.357 18.1554 150.091 18.5592 149.744 18.8868C149.398 19.2144 148.986 19.4582 148.508 19.6182V19.7058C149.001 19.8201 149.452 20.0144 149.864 20.2849C150.276 20.5553 150.607 20.9401 150.861 21.4315C151.115 21.9268 151.242 22.5744 151.242 23.3744C151.242 24.3763 151.046 25.1649 150.657 25.7477C150.268 26.3268 149.733 26.7382 149.051 26.982C148.37 27.2258 147.584 27.3477 146.687 27.3477H139.502V27.3401ZM140.673 19.2715H146.66C147.222 19.2715 147.731 19.1534 148.177 18.9173C148.624 18.6811 148.982 18.3458 149.252 17.9077C149.517 17.4696 149.652 16.9592 149.652 16.3725C149.652 15.443 149.394 14.7573 148.882 14.3115C148.37 13.8696 147.692 13.6449 146.853 13.6449H140.669V19.2715H140.673ZM140.673 26.3115H147.03C147.942 26.3115 148.674 26.0906 149.232 25.6449C149.791 25.203 150.068 24.422 150.068 23.3058C150.068 22.5896 149.945 22.0106 149.698 21.5687C149.452 21.1268 149.094 20.803 148.624 20.6011C148.154 20.3992 147.58 20.3001 146.899 20.3001H140.673V26.3115Z" fill="white"/>
<path d="M158.785 27.3401V12.6201H159.956V26.3115H167.287V27.3401H158.785Z" fill="white"/>
<path d="M173.881 27.3401V12.6201H185.163V13.6487H175.055V19.2715H184.208V20.3001H175.055V26.3077H185.294V27.3363H173.881V27.3401Z" fill="white"/>
</svg>
