<svg width="32" height="32" viewBox="0 0 32 32" fill="none" xmlns="http://www.w3.org/2000/svg">
<path d="M2.66602 5.62709C2.66602 4.76908 2.96632 4.06123 3.56692 3.50354C4.16751 2.94583 4.94831 2.66699 5.90926 2.66699C6.85307 2.66699 7.61667 2.94154 8.20012 3.49067C8.80071 4.05695 9.10102 4.79482 9.10102 5.70431C9.10102 6.52799 8.80931 7.21438 8.22586 7.76351C7.62527 8.32979 6.8359 8.61293 5.85778 8.61293H5.83204C4.88823 8.61293 4.12463 8.32979 3.54118 7.76351C2.95773 7.19723 2.66602 6.48508 2.66602 5.62709ZM3.00064 28.1496V10.9553H8.71492V28.1496H3.00064ZM11.8809 28.1496H17.5952V18.5486C17.5952 17.948 17.6639 17.4846 17.8012 17.1586C18.0414 16.5752 18.406 16.0818 18.8951 15.6786C19.3842 15.2753 19.9976 15.0737 20.7355 15.0737C22.6574 15.0737 23.6184 16.3692 23.6184 18.9604V28.1496H29.3327V18.2912C29.3327 15.7515 28.7321 13.8253 27.5309 12.5125C26.3297 11.1998 24.7424 10.5434 22.769 10.5434C20.5553 10.5434 18.8308 11.4958 17.5952 13.4006V13.4521H17.5695L17.5952 13.4006V10.9553H11.8809C11.9153 11.5044 11.9324 13.2118 11.9324 16.0775C11.9324 18.9432 11.9153 22.9673 11.8809 28.1496Z" fill="#FAFAFB"/>
</svg>
