<svg width="10" height="9" viewBox="0 0 10 9" fill="none" xmlns="http://www.w3.org/2000/svg">
<path d="M0.640625 8.23438V6.34375C0.640625 5.70833 0.744792 5.04688 0.953125 4.35938C1.17188 3.66146 1.48438 2.99479 1.89062 2.35938C2.29688 1.71354 2.78646 1.15625 3.35938 0.6875L5 1.82812C4.52083 2.51562 4.15104 3.22396 3.89062 3.95312C3.63021 4.67188 3.5 5.45312 3.5 6.29688V8.23438H0.640625ZM5.5625 8.23438V6.34375C5.5625 5.70833 5.66667 5.04688 5.875 4.35938C6.09375 3.66146 6.40625 2.99479 6.8125 2.35938C7.21875 1.71354 7.70833 1.15625 8.28125 0.6875L9.92188 1.82812C9.44271 2.51562 9.07292 3.22396 8.8125 3.95312C8.55208 4.67188 8.42188 5.45312 8.42188 6.29688V8.23438H5.5625Z" fill="url(#paint0_linear_131_12291)"/>
<defs>
<linearGradient id="paint0_linear_131_12291" x1="0.638374" y1="4.46219" x2="9.92075" y2="4.46219" gradientUnits="userSpaceOnUse">
<stop stop-color="#5BC5CC"/>
<stop offset="1" stop-color="#604CA5"/>
</linearGradient>
</defs>
</svg>
