<svg width="134" height="48" viewBox="0 0 134 48" fill="none" xmlns="http://www.w3.org/2000/svg">
<path d="M133.184 36.3098V35.185H124.101V36.3098H127.968V47.7913H129.301V36.3098H133.184ZM132.162 27.007L122.28 11.1684L132.018 0.548534H127.645L115.036 14.6905V0.54298H111.511V27.0014H115.036V18.8767L119.887 13.6223L128.045 26.9982L132.162 27.007ZM99.1261 47.7857H106.984V46.6654H100.456V41.9728H105.759V40.838H100.456V36.3098H106.722V35.185H99.1261V47.7857ZM105.67 27.0014L99.6802 16.0508C102.51 15.1691 105.081 12.5963 105.081 8.62775C105.081 3.55658 101.591 0.54298 95.7844 0.54298H87.2225V27.0014H90.7502V16.6381H96.2621L101.738 27.0014H105.67ZM90.7491 13.7356V3.51995H95.6725C99.3477 3.51995 101.558 5.43093 101.558 8.62775C101.558 11.8246 99.4632 13.7356 95.9724 13.7356H90.7491ZM88.2229 45.0908C87.6278 43.6207 87.0504 42.3604 86.3686 40.768L83.9879 35.185H82.5522L88.2051 47.9956H88.2407L93.9114 35.185H92.4591L90.0784 40.768C89.3955 42.3604 88.818 43.6207 88.2229 45.0908ZM79.1033 27.0014H82.8509L70.651 0.102168H70.5776L58.3779 27.0014H62.1253L64.6981 21.1219H76.4938L79.1033 27.0014ZM75.2079 18.2182H65.9839C67.7851 14.1763 69.1442 11.0162 70.6143 7.26864C72.0478 11.0162 73.407 14.1763 75.2079 18.2182ZM59.5514 35.185H58.2191V47.7857H59.5514V35.185ZM47.7468 23.8734C47.7468 10.7109 37.0383 0 23.8735 0C10.7086 0 0 10.7086 0 23.8734C0 37.0382 10.7086 47.7469 23.8735 47.7469C37.0383 47.7469 47.7468 37.0382 47.7468 23.8734ZM21.8437 1.45018L3.86972 34.1934C2.21501 31.0052 1.35235 27.4655 1.35467 23.8734C1.35467 12.1411 10.3755 2.48173 21.8437 1.45239V1.45018ZM23.1939 23.4749L5.77404 33.5338L23.1939 1.80439V23.4749ZM23.1939 46.3711C19.4733 46.258 15.8386 45.2242 12.6154 43.3625C9.39207 41.5007 6.68063 38.8688 4.72361 35.7026L23.1939 25.0427V46.3711ZM29.2199 12.1799C29.2144 14.1394 28.7954 16.0756 27.9905 17.8622C27.1855 19.6488 26.0126 21.2452 24.5486 22.5477V1.80994C26.023 3.10429 27.2029 4.69961 28.0087 6.48843C28.8144 8.27723 29.2275 10.218 29.2199 12.1799ZM43.0143 12.0322L27.9131 20.7488C29.6372 18.2231 30.5629 15.238 30.5702 12.1799C30.5777 10.1922 30.1922 8.2226 29.4355 6.38457C28.6786 4.54653 27.5658 2.87633 26.1609 1.47017C29.5899 1.82547 32.8918 2.96234 35.8127 4.79337C38.7337 6.62438 41.1958 9.10079 43.01 12.0322H43.0143ZM43.6951 34.541L25.2204 23.8734L43.6951 13.2025C45.4632 16.4808 46.3888 20.147 46.3888 23.8718C46.3888 27.5964 45.4632 31.2627 43.6951 34.541ZM43.0133 35.7113C41.0556 38.8752 38.3446 41.5048 35.1225 43.3649C31.9003 45.2252 28.2674 46.2579 24.5486 46.3711V25.0449L43.0133 35.7113ZM67.6229 34.9773H67.6051V47.7857H68.9377V39.4189C68.9377 39.017 68.921 38.6484 68.921 38.2985C69.0254 38.4385 69.1653 38.5962 69.2873 38.736L77.3212 47.9945H77.3389V35.185H76.0064V43.5508C76.0064 43.9704 76.0242 44.3203 76.0242 44.6711L75.6567 44.2325L67.6229 34.9773ZM118.395 44.7778C118.395 46.0558 117.134 46.7908 115.489 46.7908C114.106 46.7908 112.811 46.3178 111.989 45.9159V47.2483C113.115 47.7402 114.329 47.996 115.559 48C118.027 48 119.707 46.7786 119.707 44.6922C119.707 42.8544 118.657 41.8395 116.136 40.9469C113.879 40.124 113.267 39.3367 113.267 38.1997C113.267 36.9783 114.439 36.1866 116.05 36.1866C117.094 36.212 118.121 36.4627 119.06 36.9217V35.6224C118.092 35.204 117.051 34.9846 115.998 34.9773C113.74 34.9773 111.954 36.1666 111.954 38.2496C111.954 40.0696 112.987 41.1367 115.49 42.025C117.71 42.8134 118.396 43.4962 118.396 44.7733L118.395 44.7778Z" fill="#423F4C"/>
</svg>
