<svg width="24" height="24" viewBox="0 0 24 24" fill="none" xmlns="http://www.w3.org/2000/svg">
<path fill-rule="evenodd" clip-rule="evenodd" d="M1.84615 12C1.84615 6.39219 6.39219 1.84615 12 1.84615C17.6078 1.84615 22.1538 6.39219 22.1538 12C22.1538 17.6078 17.6078 22.1538 12 22.1538C6.39219 22.1538 1.84615 17.6078 1.84615 12ZM12 0C5.37258 0 0 5.37258 0 12C0 18.6274 5.37258 24 12 24C18.6274 24 24 18.6274 24 12C24 5.37258 18.6274 0 12 0ZM9.23077 9.69231C9.23077 10.457 8.61086 11.0769 7.84615 11.0769C7.08145 11.0769 6.46154 10.457 6.46154 9.69231C6.46154 8.92761 7.08145 8.30769 7.84615 8.30769C8.61086 8.30769 9.23077 8.92761 9.23077 9.69231ZM16.1538 11.0769C16.9186 11.0769 17.5385 10.457 17.5385 9.69231C17.5385 8.92761 16.9186 8.30769 16.1538 8.30769C15.3891 8.30769 14.7692 8.92761 14.7692 9.69231C14.7692 10.457 15.3891 11.0769 16.1538 11.0769ZM7.99831 14.3058C7.74238 13.8649 7.17749 13.715 6.73658 13.9709C6.29567 14.2268 6.14571 14.7917 6.40163 15.2326C6.97077 16.2131 7.78744 17.027 8.76993 17.5927C9.75241 18.1584 10.8662 18.4562 12 18.4562C13.1337 18.4562 14.2475 18.1584 15.23 17.5927C16.2125 17.027 17.0292 16.2131 17.5983 15.2326C17.8542 14.7917 17.7043 14.2268 17.2634 13.9709C16.8224 13.715 16.2576 13.8649 16.0016 14.3058C15.5948 15.0067 15.0111 15.5884 14.3088 15.9928C13.6065 16.3972 12.8103 16.61 12 16.61C11.1896 16.61 10.3934 16.3972 9.69115 15.9928C8.98887 15.5884 8.40512 15.0067 7.99831 14.3058Z" fill="#A094C9"/>
</svg>
