<svg width="24" height="24" viewBox="0 0 24 24" fill="none" xmlns="http://www.w3.org/2000/svg">
<path fill-rule="evenodd" clip-rule="evenodd" d="M15.4377 4.52333C18.2178 1.74326 20.9342 1.80322 22.0378 1.96239C22.197 3.06596 22.2569 5.7824 19.4769 8.56247L18.1439 9.89544C18.1372 9.90192 18.1306 9.90851 18.1241 9.91519L12.0795 15.9598L8.04036 11.9207L15.4377 4.52333ZM20.8214 9.90706L19.757 10.9715V18.255L19.7569 18.2685C19.7498 18.7679 19.5465 19.2444 19.1911 19.595L15.3542 23.4438C15.1106 23.6871 14.8056 23.8597 14.4716 23.9432C14.1376 24.0267 13.7872 24.018 13.4578 23.9179C13.1284 23.8179 12.8323 23.6303 12.6012 23.3752C12.3702 23.1202 12.2127 22.8074 12.1455 22.4701L11.2039 17.7734L6.2268 12.7963L1.53071 11.8548L1.52986 11.8547C1.19253 11.7874 0.879743 11.63 0.624828 11.399C0.369697 11.1679 0.182103 10.8718 0.0820603 10.5424C-0.0179823 10.213 -0.026721 9.8626 0.0567783 9.52861C0.140278 9.19462 0.312881 8.88957 0.556174 8.646L0.557599 8.64457L4.40495 4.8091C4.75561 4.45369 5.23207 4.25039 5.73147 4.24327L5.74501 4.24318H13.0287L14.0931 3.17874C17.4126 -0.140705 20.7958 -0.1388 22.3135 0.0809391C22.7197 0.136546 23.0966 0.323585 23.3866 0.613574C23.6766 0.903563 23.8636 1.28047 23.9192 1.68667C24.139 3.20441 24.1409 6.58762 20.8214 9.90706ZM11.1272 6.14471H5.75845L5.75077 6.15256L5.75072 6.15251L1.90154 9.98981L1.90301 9.99011L6.38352 10.8883L11.1272 6.14471ZM13.1119 17.6166L17.8555 12.873V18.2415L14.0104 22.0985L13.1119 17.6166ZM5.65595 16.8507C6.15366 16.6834 6.42145 16.1442 6.25408 15.6465C6.08671 15.1488 5.54756 14.881 5.04985 15.0484C2.63259 15.8612 1.47464 17.8717 0.925563 19.5206C0.648184 20.3535 0.511246 21.1333 0.44297 21.7025C0.408667 21.9884 0.391272 22.2248 0.382434 22.3928C0.37801 22.4769 0.375716 22.5441 0.374527 22.592C0.373932 22.616 0.373613 22.6352 0.373443 22.6493L0.373283 22.6667L0.373257 22.6725L0.373252 22.6746L0.373251 22.6755C0.373251 22.6759 0.373251 22.6762 1.32402 22.6762H0.373251C0.373251 23.2013 0.798925 23.627 1.32402 23.627V22.6762C1.32402 23.627 1.32439 23.627 1.32478 23.627H1.32566L1.3278 23.627L1.33357 23.627L1.35092 23.6268C1.36505 23.6266 1.38426 23.6263 1.40824 23.6257C1.4562 23.6245 1.52338 23.6222 1.60745 23.6178C1.7754 23.609 2.01182 23.5916 2.29778 23.5573C2.86695 23.489 3.64673 23.3521 4.47969 23.0747C6.12856 22.5256 8.139 21.3677 8.95189 18.9504C9.11926 18.4527 8.85147 17.9135 8.35376 17.7462C7.85605 17.5788 7.3169 17.8466 7.14953 18.3443C6.60757 19.9559 5.25467 20.8124 3.8789 21.2706C3.33261 21.4525 2.80668 21.5624 2.37183 21.6284C2.43787 21.1936 2.54778 20.6676 2.7297 20.1213C3.18784 18.7456 4.04433 17.3927 5.65595 16.8507Z" fill="#A094C9"/>
</svg>
