<svg width="24" height="24" viewBox="0 0 24 24" fill="none" xmlns="http://www.w3.org/2000/svg">
<path fill-rule="evenodd" clip-rule="evenodd" d="M17.275 3.32343C18.7963 3.48081 20.3711 3.18052 22.1121 1.8748C22.4061 1.65427 22.7995 1.61879 23.1283 1.78317C23.4571 1.94755 23.6647 2.28356 23.6647 2.65113V17.2072C23.6647 17.5126 23.5209 17.8002 23.2766 17.9835C21.1359 19.589 19.0717 20.0165 17.0753 19.81C15.169 19.6128 13.3557 18.8355 11.7036 18.1274L11.6376 18.0991C10.5179 17.6192 9.46815 17.1729 8.43602 16.8737C8.38343 16.8634 8.33236 16.8489 8.28318 16.8304C7.77549 16.6903 7.27145 16.5873 6.76477 16.5349C5.35733 16.3893 3.90409 16.6354 2.31587 17.707V23.0296C2.31587 23.5655 1.8814 24 1.34546 24C0.809523 24 0.375059 23.5655 0.375059 23.0296V17.2187C0.37498 17.2115 0.37498 17.2043 0.375059 17.1972V9.71018C0.37498 9.70301 0.37498 9.69585 0.375059 9.68869V2.66261C0.374824 2.64125 0.375291 2.61991 0.376456 2.59861C0.390836 2.3358 0.511482 2.08054 0.728506 1.90207C0.742668 1.89039 0.757167 1.87911 0.771986 1.86823C2.90951 0.268147 4.97081 -0.157923 6.96448 0.0483197C8.87083 0.245529 10.6841 1.02277 12.3362 1.7309L12.4022 1.75919C13.522 2.23913 14.5719 2.68548 15.6041 2.9847C15.6564 2.99496 15.7072 3.00943 15.7562 3.02774C16.264 3.16791 16.7682 3.271 17.275 3.32343ZM14.4458 4.65547C13.4935 4.33856 12.5761 3.94532 11.7036 3.57136L11.6376 3.54307C10.933 3.24109 10.2561 2.9524 9.59389 2.70531V7.69433C10.5463 8.01124 11.4637 8.40449 12.3362 8.77846L12.4022 8.80675C13.1068 9.10872 13.7836 9.39739 14.4458 9.64449V4.65547ZM16.3866 10.2296V5.15787C16.6148 5.19764 16.8443 5.23004 17.0753 5.25393C18.5848 5.41009 20.1331 5.20375 21.7239 4.39978V9.19888C20.1357 10.2705 18.6825 10.5166 17.275 10.371C16.9784 10.3403 16.6827 10.2923 16.3866 10.2296ZM14.4458 11.703C13.4935 11.3861 12.5761 10.9929 11.7036 10.6189L11.6376 10.5906C10.933 10.2886 10.2561 9.99997 9.59389 9.75287V15.2028C10.5463 15.5197 11.4637 15.913 12.3362 16.2869L12.4022 16.3152C13.1068 16.6172 13.7836 16.9059 14.4458 17.153V11.703ZM16.3866 17.7381V12.2054C16.6148 12.2452 16.8443 12.2776 17.0753 12.3015C18.5848 12.4577 20.1331 12.2513 21.7239 11.4473V16.7074C20.1357 17.779 18.6825 18.0251 17.275 17.8795C16.9784 17.8488 16.6827 17.8008 16.3866 17.7381ZM7.65308 7.19194V2.12019C7.35704 2.05753 7.06136 2.0095 6.76477 1.97882C5.35733 1.83323 3.90409 2.07934 2.31587 3.15093V7.95004C3.90666 7.14606 5.45495 6.93972 6.96448 7.09588C7.19542 7.11977 7.42499 7.15218 7.65308 7.19194ZM7.65308 14.7004V9.16776C7.35704 9.1051 7.06136 9.05707 6.76477 9.02639C5.35733 8.88079 3.90409 9.12691 2.31587 10.1985V15.4585C3.90666 14.6545 5.45495 14.4482 6.96448 14.6044C7.19542 14.6283 7.42499 14.6607 7.65308 14.7004Z" fill="#A094C9"/>
</svg>
