<svg width="167" height="80" viewBox="0 0 167 80" fill="none" xmlns="http://www.w3.org/2000/svg">
<path d="M36.6452 44.5985C42.1634 43.8102 45.5795 40 45.5795 34.4817C45.5795 28.1752 41.2437 24.2336 34.0174 24.2336H16.9371V57.3431H22.9809V44.8613H29.9444L37.959 57.3431H44.9225L36.6452 44.5985ZM22.9809 39.3431V29.6204H33.2291C37.4335 29.6204 39.2729 31.1971 39.2729 34.4817C39.2729 37.7664 37.1707 39.3431 33.2291 39.3431H22.9809Z" fill="#A19FA5"/>
<path d="M49.5211 57.3431H55.4335V43.6788C55.4335 39.6058 58.4554 36.8467 62.9225 36.8467C67.3897 36.8467 70.0174 39.3431 70.0174 43.6788V57.3431H75.9298V42.7591C75.9298 36.1898 71.0685 31.5912 63.9736 31.5912C60.5576 31.5912 57.5357 32.7737 55.5649 34.8759H55.4335V22.7883H49.5211V57.3431Z" fill="#A19FA5"/>
<path d="M80.6597 28.0438L86.9663 25.4161V22H80.6597V28.0438ZM80.7911 57.3431H86.7035V30.9343L80.7911 33.562V57.3431Z" fill="#A19FA5"/>
<path d="M91.959 57.3431H97.8714V43.6788C97.8714 39.6058 100.893 36.8467 105.492 36.8467C109.828 36.8467 112.587 39.3431 112.587 43.6788V57.3431H118.499V42.7591C118.499 36.1898 113.638 31.5912 106.543 31.5912C103.127 31.5912 99.9736 32.7737 97.8714 34.8759H97.74V33.562L92.0904 30.9343V57.3431H91.959Z" fill="#A19FA5"/>
<path d="M136.368 58C144.514 58 150.295 52.219 150.295 44.7299C150.295 37.2409 144.514 31.4599 136.368 31.4599C128.222 31.4599 122.441 37.2409 122.441 44.7299C122.441 52.3504 128.222 58 136.368 58ZM136.368 52.8759C131.506 52.8759 128.222 49.4599 128.222 44.7299C128.222 40 131.506 36.5839 136.368 36.5839C141.229 36.5839 144.514 40 144.514 44.7299C144.514 49.4599 141.229 52.8759 136.368 52.8759Z" fill="#A19FA5"/>
</svg>
