<svg width="245" height="245" viewBox="0 0 245 245" fill="none" xmlns="http://www.w3.org/2000/svg">
<path d="M85.7979 50.0518H161.64" stroke="#F6F8FA" stroke-width="0.460811" stroke-miterlimit="10"/>
<path d="M122.5 237.768C186.072 237.768 237.607 186.161 237.607 122.501C237.607 58.8411 186.072 7.23438 122.5 7.23438C58.9279 7.23438 7.39258 58.8411 7.39258 122.501C7.39258 186.161 58.9279 237.768 122.5 237.768Z" fill="white"/>
<path d="M122.5 7.23307C186.068 7.23307 237.607 58.8439 237.607 122.5C237.607 186.156 186.068 237.767 122.5 237.767C58.9319 237.767 7.39242 186.156 7.39242 122.5C7.39242 58.8439 58.9516 7.23307 122.5 7.23307ZM122.5 4C57.2388 4 4.16382 57.1485 4.16382 122.5C4.16382 187.851 57.2388 241 122.5 241C187.761 241 240.836 187.851 240.836 122.5C240.836 57.1485 187.741 4 122.5 4Z" fill="#1C171E"/>
<path d="M44.5215 195.364L48.4982 192.308L51.5496 190.08L47.9864 191.559L43.0844 193.51L41.2732 191.204L44.364 186.985L46.7264 183.929V183.89L43.7734 186.256L39.7967 189.311L38.3596 187.458L46.4902 181.209L48.8919 184.363L46.0768 188.168L43.6356 191.184C44.6987 190.632 45.8602 190.12 47.1398 189.607L51.5299 187.892L53.9317 191.046L45.8405 197.256L44.5018 195.403L44.5215 195.364ZM60.3692 197.867C60.6055 198.695 60.5464 199.543 60.2708 200.371C59.9952 201.199 59.4833 202.047 58.6959 202.815C57.9084 203.584 57.1209 204.116 56.2941 204.432C55.4673 204.708 54.5814 204.747 53.7939 204.57C52.9671 204.333 52.1796 203.919 51.4906 203.19C50.7425 202.5 50.2897 201.711 50.0534 200.883C49.8172 200.055 49.8763 199.208 50.1519 198.38C50.4275 197.552 50.9393 196.704 51.7268 195.935C52.3962 195.226 53.223 194.674 54.1286 194.319C54.9357 194.043 55.8019 194.003 56.6288 194.181C57.4556 194.417 58.2431 194.871 58.9321 195.561C59.6802 196.251 60.133 197.039 60.3692 197.867ZM55.6051 196.487C54.916 196.586 54.227 197 53.5183 197.729C52.8293 198.419 52.4158 199.168 52.3174 199.858C52.219 200.548 52.4552 201.159 52.9671 201.672C53.4789 202.185 54.0695 202.421 54.7782 202.283C55.4673 202.185 56.1563 201.771 56.865 201.041C57.554 200.351 57.9675 199.602 58.0659 198.912C58.1643 198.222 57.9675 197.611 57.4162 197.098C56.9044 196.586 56.3138 196.408 55.6051 196.487ZM62.1213 212.002L63.145 207.704L64.3065 203.446H64.2672L61.767 206.955L59.4636 210.011L57.5737 208.572L63.775 200.43L66.5902 202.598L65.5665 206.896L64.405 211.154H64.4443L66.9445 207.645L69.2479 204.59L71.1378 206.029L64.9956 214.171L62.1213 212.002ZM67.9486 216.083L73.3624 207.428L75.4491 208.729L70.0944 217.384L67.9682 216.083H67.9486ZM80.7055 214.052L76.965 221.228L74.7404 220.065L78.4809 212.889L75.7051 211.45L76.6697 209.597L84.3868 213.619L83.4222 215.472L80.6858 214.033L80.7055 214.052ZM91.8481 217.009C92.3993 217.66 92.6749 218.448 92.7733 219.375C92.8718 220.262 92.6749 221.228 92.3205 222.253C91.9071 223.278 91.3953 224.067 90.7456 224.658C90.1156 225.25 89.3282 225.624 88.4817 225.762C87.6548 225.9 86.7296 225.762 85.8043 225.447C84.879 225.072 84.1309 224.56 83.5797 223.87C83.0285 223.219 82.7529 222.431 82.6544 221.504C82.556 220.617 82.7529 219.651 83.1072 218.626C83.5206 217.601 84.0325 216.812 84.6822 216.221C85.3121 215.629 86.0996 215.255 86.9461 215.117C87.7729 214.979 88.6982 215.117 89.6235 215.491C90.5881 215.807 91.3362 216.319 91.8481 217.009ZM86.9461 217.62C86.3358 217.995 85.883 218.646 85.509 219.572C85.1349 220.499 85.0562 221.327 85.2334 221.977C85.4106 222.628 85.8437 223.14 86.5327 223.416C87.2217 223.692 87.8714 223.653 88.4226 223.278C89.0329 222.904 89.4857 222.253 89.8597 221.327C90.2338 220.4 90.3125 219.572 90.1353 218.922C89.9581 218.271 89.525 217.758 88.836 217.542C88.1864 217.226 87.5367 217.266 86.9461 217.64V217.62ZM102.892 222.766C102.754 223.377 102.439 223.83 102.006 224.146C101.573 224.461 101.042 224.658 100.431 224.698V224.737C100.746 224.974 100.983 225.191 101.12 225.565C101.258 225.881 101.357 226.452 101.435 227.142L101.711 230.02L99.1321 229.37L98.9549 226.925C98.9156 226.373 98.8171 225.959 98.6399 225.683C98.4628 225.407 98.1281 225.23 97.6753 225.131L96.7894 224.895L95.8641 228.502L93.4624 227.891L96.0019 217.975L100.018 219C102.38 219.651 103.345 220.893 102.892 222.746V222.766ZM97.2028 223.042L98.5415 223.357C99.5652 223.633 100.215 223.318 100.431 222.431C100.668 221.603 100.195 221.051 99.0927 220.716L97.8918 220.4L97.2028 223.042ZM107.971 222.805L107.696 224.698L112.047 225.348L111.771 227.379L107.42 226.728L107.145 228.759L111.948 229.449L111.672 231.479L104.408 230.415L105.885 220.321L113.011 221.386L112.736 223.416L107.971 222.766V222.805ZM122.756 223.219C123.681 224.146 124.095 225.388 124.055 227.063C124.016 228.68 123.504 229.942 122.539 230.809C121.575 231.637 120.236 232.051 118.464 232.012L114.862 231.874L115.236 221.642L118.838 221.78C120.551 221.819 121.89 222.293 122.776 223.219H122.756ZM117.342 229.843L118.445 229.882C119.409 229.922 120.157 229.705 120.669 229.192C121.181 228.739 121.457 227.99 121.496 226.965C121.535 225.999 121.319 225.21 120.846 224.698C120.374 224.185 119.646 223.909 118.681 223.87L117.578 223.83L117.342 229.843V229.843ZM136.753 221.504C137.442 221.879 137.816 222.47 137.915 223.318C138.013 223.929 137.915 224.422 137.678 224.796C137.442 225.21 137.029 225.545 136.478 225.821V225.861C137.816 225.999 138.604 226.689 138.742 227.99C138.84 228.877 138.604 229.567 137.993 230.158C137.383 230.75 136.517 231.124 135.355 231.262L131.142 231.775L129.942 221.642L133.918 221.189C135.119 221.011 136.084 221.149 136.733 221.504H136.753ZM132.875 225.447L134.174 225.309C134.725 225.269 135.099 225.131 135.336 224.895C135.572 224.658 135.651 224.382 135.611 224.008C135.572 223.633 135.434 223.357 135.159 223.219C134.883 223.081 134.509 223.042 133.997 223.081L132.619 223.259L132.895 225.427L132.875 225.447ZM133.387 229.567L134.725 229.39C135.277 229.35 135.69 229.153 135.926 228.976C136.163 228.739 136.241 228.463 136.202 228.088C136.163 227.674 135.966 227.399 135.69 227.261C135.414 227.123 135.001 227.083 134.391 227.123L133.091 227.261L133.367 229.567H133.387ZM145.966 229.33L143.565 229.882L142.738 226.137L137.934 220.676L140.612 220.065L141.852 221.681C142.462 222.431 142.954 223.16 143.466 223.949H143.506C143.604 223.061 143.781 222.194 144.018 221.208L144.47 219.217L147.148 218.606L145.12 225.605L145.947 229.311L145.966 229.33ZM157.837 225.762L151.282 217.344L153.684 216.418L156.125 219.71C156.952 220.775 157.739 221.938 158.487 223.081H158.527C158.29 221.879 158.113 220.538 157.975 218.961L157.601 214.88L160.003 213.954L160.83 224.599L157.818 225.762H157.837ZM166.441 219.69L166.854 221.918L164.551 223.121L162.936 212.436L165.85 210.957L173.606 218.409L171.303 219.612L169.728 217.995L166.441 219.71V219.69ZM167.74 215.945L165.102 213.126H165.062L165.889 216.871L166.027 217.561L168.252 216.398L167.74 215.945V215.945ZM180.32 213.993L176.579 211.687L172.917 209.242H172.878L175.378 212.751L177.504 215.905L175.516 217.246L169.787 208.769L172.74 206.778L176.481 209.084L180.142 211.529L177.642 208.02L175.516 204.866L177.504 203.525L183.233 212.002L180.32 213.993ZM184.296 200.568L189.572 206.719L187.682 208.335L182.406 202.185L180.044 204.215L178.666 202.598L185.281 196.901L186.659 198.518L184.296 200.548V200.568ZM192.899 200.607L194.002 202.598L192.191 204.491L187.249 194.91L189.513 192.544L199.258 197.079L197.447 198.971L195.459 197.946L192.88 200.588L192.899 200.607ZM192.899 196.665L189.533 194.851L191.521 198.143L191.895 198.754L193.608 196.941L192.919 196.665H192.899Z" fill="#1C171E"/>
<mask id="mask0_745_16762" style="mask-type:alpha" maskUnits="userSpaceOnUse" x="33" y="34" width="178" height="177">
<ellipse cx="122.037" cy="122.499" rx="88.3712" ry="88.4935" fill="white"/>
</mask>
<g mask="url(#mask0_745_16762)">
<path d="M157.09 246.756C156.538 246.243 156.263 245.416 156.479 244.942C156.755 244.489 156.755 243.365 156.519 242.537C156.282 241.709 155.869 240.586 155.593 240.034C155.318 239.482 155.219 238.792 155.357 238.457C155.495 238.121 155.259 237.077 154.845 236.15L152.995 232.68C152.444 231.714 152.207 231.103 152.542 231.34L154.53 232.779C155.318 233.331 155.83 233.015 155.692 231.951C155.554 230.926 155.141 229.546 154.727 228.935C154.314 228.284 153.487 227.358 152.916 226.904C152.345 226.451 152.227 226.017 152.64 225.978C153.054 225.938 153.152 225.367 152.877 224.677C152.601 223.987 152.778 223.612 153.29 223.789C153.802 223.967 154.215 223.651 154.215 223.099C154.215 222.547 154.038 221.66 153.802 221.207C153.566 220.753 153.349 219.965 153.192 219.531L152.503 217.264C152.227 216.476 152.227 216.022 152.542 216.298C152.857 216.574 153.369 217.225 153.644 217.816C153.92 218.368 154.058 218.132 153.92 217.304C153.782 216.416 153.369 215.273 152.995 214.76C152.621 214.248 152.168 213.243 152.03 212.533C151.892 211.823 151.755 210.64 151.794 209.852C151.833 209.063 151.794 207.959 151.656 207.407C151.558 206.855 151.006 205.929 150.455 205.318C149.904 204.706 149.707 204.352 150.081 204.49C150.455 204.628 151.243 205.18 151.755 205.653C152.266 206.126 152.778 206.205 152.818 205.83C152.857 205.456 152.719 204.588 152.542 203.938C152.365 203.248 151.892 202.42 151.479 202.084C151.066 201.749 150.18 200.783 149.451 199.995C148.723 199.206 148.349 198.654 148.624 198.792C148.9 198.93 149.648 199.068 150.239 199.167C150.849 199.206 151.341 198.792 151.341 198.201C151.341 197.609 150.967 196.584 150.455 195.973C150.002 195.362 149.254 194.16 148.88 193.332C148.506 192.504 148.782 192.366 149.53 192.957C150.278 193.548 150.632 193.706 150.357 193.194C150.081 192.681 149.943 192.03 150.081 191.814C150.219 191.538 150.258 190.848 150.258 190.197C150.219 189.546 149.845 188.62 149.432 188.107C149.018 187.595 148.979 187.279 149.294 187.358C149.668 187.457 149.53 186.944 149.057 186.195C148.585 185.446 148.644 185.032 149.235 185.269C149.786 185.505 150.121 185.367 149.924 184.993C149.727 184.618 149.648 183.889 149.747 183.415C149.845 182.942 149.569 181.898 149.097 181.109C148.624 180.32 148.644 179.729 149.057 179.808C149.471 179.887 149.471 179.354 149.057 178.605C148.644 177.817 148.683 177.265 149.195 177.304C149.707 177.344 149.609 176.89 149.057 176.24C148.506 175.589 148.447 175.215 148.88 175.412C149.333 175.589 149.333 175.274 148.92 174.663C148.506 174.051 148.644 173.637 149.294 173.775C149.904 173.913 149.904 173.637 149.254 173.125C148.605 172.612 148.093 171.784 148.152 171.232C148.211 170.68 148.152 169.793 148.113 169.34C148.073 168.886 148.073 166.383 148.113 165.673C148.152 164.963 148.388 164.234 148.624 163.997C148.861 163.721 149.372 163.445 149.786 163.347C150.199 163.248 150.711 162.893 150.947 162.519C151.184 162.144 151.085 161.967 150.711 162.065C150.337 162.164 149.687 161.967 149.274 161.651C148.821 161.336 148.664 160.547 148.664 160.547C148.664 160.547 149.117 159.66 149.589 159.857C150.062 160.055 150.101 159.621 149.766 158.931C149.392 158.241 149.491 157.866 149.943 158.103C150.396 158.339 150.554 158.202 150.219 157.728C149.943 157.275 149.983 156.979 150.396 157.078C150.77 157.176 150.908 156.979 150.672 156.664C150.436 156.348 149.845 155.875 149.294 155.599C148.743 155.323 148.231 154.771 148.191 154.298L147.955 152.484C147.916 151.932 147.994 151.42 148.231 151.381C148.467 151.341 148.743 150.967 148.841 150.553C148.939 150.139 149.156 149.863 149.353 149.863C149.55 149.863 149.727 149.547 149.766 149.173C149.806 148.798 150.042 148.384 150.376 148.285C150.652 148.187 150.751 147.97 150.554 147.773C150.357 147.576 150.416 147.26 150.691 147.083C150.967 146.905 151.006 146.531 150.869 146.255C150.731 145.979 150.593 145.644 150.632 145.427C150.672 145.25 150.908 144.816 151.144 144.5C151.381 144.185 151.42 143.85 151.184 143.751C150.947 143.653 151.006 143.239 151.223 142.825C151.44 142.411 151.499 142.076 151.223 142.135C150.947 142.194 150.711 141.957 150.613 141.622C150.514 141.287 150.652 140.794 150.888 140.518C151.125 140.242 151.164 139.868 151.026 139.769C150.888 139.631 150.751 139.079 150.79 138.567C150.829 138.015 150.652 137.739 150.376 137.916C150.101 138.093 149.963 137.877 150.002 137.403C150.042 136.93 150.101 136.023 150.042 135.412C149.983 134.801 149.865 134.486 149.668 134.663C149.53 134.841 149.254 134.762 149.156 134.486C149.058 134.21 148.88 133.52 148.88 132.968C148.841 132.416 148.703 132.219 148.506 132.554C148.309 132.889 148.053 132.79 147.817 132.376C147.581 131.962 147.168 131.272 146.853 130.858C146.538 130.444 145.829 129.794 145.337 129.419C144.845 129.045 144.411 129.005 144.411 129.281C144.411 129.597 144.037 129.695 143.585 129.518C143.132 129.34 142.482 128.966 142.148 128.769C141.773 128.532 141.124 128.394 140.632 128.394C140.179 128.434 139.982 128.907 140.218 129.498C140.494 130.05 140.533 130.563 140.356 130.602C140.179 130.642 139.569 130.504 139.017 130.366C138.466 130.228 138.23 130.326 138.505 130.602C138.781 130.878 138.781 131.351 138.545 131.667C138.309 131.943 138.545 132.357 139.057 132.593C139.569 132.83 139.844 133.204 139.706 133.48C139.569 133.756 139.569 134.367 139.746 134.86C139.923 135.353 140.061 136.24 140.021 136.753C139.982 137.305 139.785 137.817 139.569 137.857C139.352 137.896 139.254 138.507 139.332 139.158C139.411 139.808 139.293 140.321 139.057 140.321C138.82 140.321 138.446 140.834 138.309 141.484C138.171 142.135 137.856 142.411 137.659 142.135C137.462 141.859 137.049 141.583 136.734 141.524C136.419 141.464 136.084 141.248 135.986 141.011C135.887 140.774 135.612 140.597 135.336 140.597C135.06 140.636 134.785 140.282 134.647 139.848C134.509 139.395 134.194 139.059 133.899 139.099C133.604 139.138 133.21 138.645 133.013 137.995C132.816 137.344 132.363 137.108 132.048 137.384C131.674 137.699 131.3 137.62 131.162 137.206C131.025 136.792 130.749 136.694 130.513 136.97C130.277 137.246 129.725 137.108 129.312 136.694C128.898 136.28 128.209 136.181 127.875 136.556C127.501 136.93 127.127 136.97 126.989 136.694C126.851 136.418 126.536 136.457 126.3 136.871C126.024 137.285 125.552 137.325 125.197 136.911C124.823 136.536 124.508 136.221 124.41 136.26C124.311 136.299 124.174 136.26 124.134 136.26C124.095 136.26 123.721 136.536 123.347 136.911C122.973 137.285 122.52 137.285 122.244 136.871C121.969 136.457 121.693 136.359 121.555 136.694C121.418 137.029 121.043 136.97 120.669 136.556C120.295 136.181 119.646 136.24 119.232 136.694C118.78 137.147 118.209 137.305 118.031 136.97C117.854 136.635 117.52 136.792 117.382 137.206C117.244 137.62 116.87 137.719 116.496 137.384C116.122 137.049 115.708 137.344 115.531 137.995C115.354 138.645 114.921 139.158 114.645 139.099C114.37 139.04 113.996 139.414 113.897 139.848C113.799 140.282 113.444 140.636 113.208 140.597C112.933 140.558 112.657 140.735 112.559 141.011C112.46 141.287 112.145 141.524 111.81 141.524C111.495 141.563 111.062 141.8 110.885 142.135C110.708 142.47 110.432 142.135 110.236 141.484C110.098 140.834 109.724 140.321 109.487 140.321C109.212 140.321 109.113 139.808 109.212 139.158C109.31 138.507 109.212 137.955 108.976 137.857C108.739 137.817 108.562 137.305 108.523 136.753C108.483 136.201 108.621 135.373 108.798 134.86C108.976 134.348 109.035 133.697 108.838 133.48C108.7 133.204 108.976 132.83 109.487 132.593C109.999 132.357 110.236 131.943 109.999 131.667C109.763 131.391 109.822 130.918 110.039 130.602C110.314 130.326 110.039 130.228 109.527 130.366C108.976 130.504 108.365 130.642 108.188 130.602C108.011 130.563 108.05 130.09 108.326 129.498C108.602 128.946 108.424 128.434 107.913 128.394C107.46 128.355 106.751 128.532 106.397 128.769C106.042 129.005 105.373 129.321 104.96 129.518C104.507 129.695 104.133 129.616 104.133 129.281C104.133 128.946 103.719 129.005 103.207 129.419C102.696 129.794 102.007 130.444 101.692 130.858C101.377 131.272 100.904 131.962 100.727 132.376C100.491 132.79 100.176 132.889 100.038 132.554C99.9001 132.219 99.7229 132.416 99.6639 132.968C99.6245 133.48 99.5261 133.993 99.3882 134.486C99.2504 134.762 99.0142 134.86 98.8764 134.663C98.7386 134.466 98.5614 134.801 98.5024 135.412C98.4433 136.023 98.5024 136.891 98.5417 137.403C98.5811 137.857 98.4433 138.093 98.1677 137.916C97.8921 137.739 97.7543 138.015 97.7543 138.567C97.7543 139.119 97.6558 139.67 97.518 139.769C97.3802 139.907 97.4196 140.222 97.6558 140.518C97.8921 140.814 98.0299 141.307 97.9314 141.622C97.8921 141.938 97.6165 142.174 97.3212 142.135C97.0259 142.095 97.0455 142.411 97.3212 142.825C97.5968 143.239 97.5968 143.653 97.3605 143.751C97.1243 143.85 97.1834 144.165 97.3999 144.5C97.6755 144.816 97.9118 145.25 97.9118 145.427C97.9511 145.604 97.8133 145.979 97.6755 146.255C97.5377 146.531 97.5771 146.866 97.8527 147.083C98.1283 147.26 98.1677 147.595 97.9905 147.773C97.8133 147.95 97.8921 148.187 98.1677 148.285C98.4433 148.384 98.7189 148.798 98.778 149.173C98.837 149.547 99.0142 149.863 99.1914 149.863C99.3686 149.863 99.6048 150.178 99.7032 150.553C99.8017 150.927 100.077 151.302 100.314 151.381C100.55 151.459 100.688 151.932 100.589 152.484L100.353 154.298C100.314 154.752 99.8017 155.323 99.2504 155.599C98.6992 155.875 98.0889 156.348 97.8724 156.664C97.6558 156.979 97.774 157.176 98.148 157.078C98.522 156.979 98.6008 157.255 98.3252 157.728C98.0496 158.202 98.1874 158.339 98.6008 158.103C99.0142 157.866 99.1126 158.201 98.778 158.931C98.4433 159.66 98.5024 160.035 98.9551 159.857C99.4079 159.68 99.841 159.995 99.8804 160.547C99.9198 161.099 99.7426 161.336 99.2701 161.651C98.7977 161.967 98.1677 162.164 97.833 162.065C97.459 161.967 97.3802 162.164 97.5968 162.519C97.8133 162.874 98.3449 163.268 98.7583 163.347C99.1717 163.426 99.6835 163.721 99.9198 163.997C100.156 164.273 100.373 165.022 100.432 165.673C100.491 166.324 100.471 168.867 100.432 169.34C100.392 169.813 100.333 170.68 100.392 171.232C100.451 171.784 99.9395 172.671 99.2898 173.125C98.6402 173.578 98.6402 173.913 99.2504 173.775C99.8607 173.637 100.038 174.051 99.6245 174.663C99.2111 175.274 99.2504 175.589 99.6639 175.412C100.117 175.234 100.038 175.589 99.4867 176.24C98.9355 176.89 98.8764 177.344 99.3489 177.304C99.8214 177.265 99.9001 177.817 99.4867 178.605C99.0733 179.394 99.0733 179.906 99.4867 179.808C99.9001 179.709 99.8607 180.261 99.4473 181.109C98.9945 181.898 98.6992 182.962 98.7977 183.415C98.8961 183.869 98.7977 184.618 98.6205 184.993C98.4433 185.367 98.7583 185.505 99.3095 185.269C99.8607 185.032 99.9592 185.446 99.4867 186.195C99.0142 186.944 98.8764 187.437 99.2504 187.358C99.6245 187.279 99.5261 187.595 99.1126 188.107C98.6992 188.62 98.3252 189.546 98.2858 190.197C98.2464 190.848 98.3252 191.577 98.463 191.814C98.6008 192.09 98.463 192.701 98.1874 193.194C97.9118 193.686 98.2858 193.608 99.0142 192.957C99.7426 192.306 100.038 192.504 99.6639 193.332C99.2898 194.16 98.5614 195.323 98.0889 195.973C97.6165 196.624 97.203 197.59 97.203 198.201C97.203 198.812 97.7149 199.265 98.3055 199.167C98.9158 199.127 99.6442 198.93 99.9198 198.792C100.195 198.654 99.8214 199.206 99.093 199.995L97.0652 202.084C96.6912 202.4 96.2384 203.287 96.0022 203.938C95.7659 204.588 95.6872 205.456 95.7265 205.83C95.7659 206.205 96.2384 206.146 96.7896 205.653C97.3408 205.16 98.0889 204.628 98.463 204.49C98.837 204.352 98.6992 204.667 98.0889 205.318C97.5377 205.929 96.9865 206.895 96.8881 207.407C96.7896 207.92 96.7502 209.083 96.7502 209.852C96.7896 210.64 96.6518 211.843 96.514 212.533C96.3762 213.223 95.9037 214.209 95.5494 214.76C95.195 215.312 94.7619 216.476 94.6241 217.304C94.4863 218.191 94.6241 218.408 94.8997 217.816C95.1753 217.264 95.6872 216.574 96.0022 216.298C96.3171 216.022 96.3171 216.476 96.0415 217.264L95.3525 219.531C95.2541 219.985 94.9785 220.734 94.7422 221.207C94.506 221.68 94.3288 222.547 94.3288 223.099C94.3288 223.651 94.7422 223.987 95.2541 223.789C95.7659 223.592 95.9431 223.967 95.6675 224.677C95.3919 225.386 95.4903 225.919 95.9037 225.978C96.3171 226.037 96.1793 226.431 95.6281 226.904C95.0769 227.377 94.2501 228.284 93.8169 228.935C93.3838 229.585 92.931 230.926 92.8523 231.951C92.7145 232.976 93.2657 233.331 94.0138 232.779L96.0022 231.34C96.3171 231.103 96.1006 231.714 95.5494 232.68L93.6988 236.15C93.246 237.116 93.0098 238.141 93.187 238.457C93.3248 238.772 93.2263 239.482 92.9507 240.034C92.6751 240.586 92.2617 241.709 92.0255 242.537C91.7892 243.365 91.8483 244.43 92.0648 244.942C92.3405 245.396 92.0648 246.243 91.4546 246.756C90.9033 247.269 93.8957 247.683 98.2071 247.683H150.16C154.452 247.683 157.464 247.269 156.912 246.756H157.09Z" fill="#C6C2DF"/>
<path d="M134.017 157.314C134.017 157.314 132.501 151.163 137.954 148.384C131.674 149.823 130.887 159.029 130.887 159.029C130.887 159.029 128.485 151.025 131.674 142.923C126.182 147.654 126.812 157.728 126.812 157.728L124.311 139.434L121.87 157.669C121.87 157.669 122.52 147.575 117.008 142.864C120.236 150.966 117.795 158.97 117.795 158.97C117.795 158.97 116.968 149.764 110.728 148.325C116.181 151.104 114.665 157.255 114.665 157.255C114.665 157.255 109.999 152.859 103.562 153.371C111.279 155.224 111.003 157.255 114.232 160.922C117.382 160.468 120.748 158.931 124.272 158.931C127.796 158.931 131.162 160.508 134.312 160.922C137.6 157.255 137.265 155.224 144.982 153.371C138.643 152.918 134.017 157.314 134.017 157.314V157.314Z" fill="white"/>
<path d="M143.171 132.081C143.21 131.569 143.447 131.332 143.781 131.529C144.057 131.707 144.844 132.081 145.455 132.357C146.065 132.633 146.695 133.284 146.892 133.796C147.089 134.309 147.345 134.585 147.541 134.407C147.738 134.23 148.152 134.861 148.427 135.846C148.703 136.832 149.038 138.666 149.116 139.967C149.195 141.268 149.077 143.022 148.841 143.949L148.014 146.965C147.837 147.714 147.561 148.582 147.404 148.858C147.246 149.134 146.951 149.548 146.616 149.745C146.341 149.922 145.829 149.981 145.553 149.784C145.277 149.587 145.317 149.331 145.691 149.094C146.065 148.858 146.38 148.266 146.478 147.793C146.577 147.32 146.301 147.142 145.868 147.418C145.494 147.694 144.766 147.872 144.254 147.832C143.742 147.793 143.742 147.517 144.254 147.28C144.766 147.044 145.494 146.531 145.927 146.078C146.341 145.664 146.203 145.565 145.553 145.841C144.903 146.117 143.801 146.453 143.053 146.531C142.305 146.61 141.813 146.433 141.99 146.117C142.167 145.802 142.777 145.368 143.368 145.151C143.958 144.935 144.707 144.402 145.041 143.909C145.376 143.417 145.14 143.219 144.49 143.495C143.88 143.771 143.053 144.008 142.679 144.107C142.305 144.146 142.265 143.831 142.541 143.318C142.817 142.805 142.639 142.431 142.088 142.49C141.537 142.549 141.635 142.253 142.325 141.879C143.014 141.504 143.801 140.854 144.037 140.4C144.313 139.947 143.998 139.612 143.348 139.612C142.699 139.612 142.147 139.375 142.108 139.001C142.069 138.626 142.561 138.074 143.171 137.7C143.781 137.325 144.234 136.812 144.195 136.497C144.155 136.182 143.683 136.044 143.23 136.122C142.777 136.201 142.679 135.886 142.994 135.334C143.309 134.821 143.506 134.033 143.368 133.619C143.269 133.303 143.191 132.554 143.23 132.101L143.171 132.081ZM105.55 132.081C105.511 131.569 105.274 131.332 104.94 131.529C104.664 131.707 103.877 132.081 103.266 132.357C102.656 132.633 102.026 133.284 101.829 133.796C101.632 134.309 101.376 134.585 101.18 134.407C100.983 134.23 100.569 134.861 100.294 135.846C100.018 136.832 99.6834 138.666 99.6046 139.967C99.5259 141.268 99.644 143.022 99.8802 143.949L100.707 146.965C100.884 147.714 101.16 148.582 101.317 148.858C101.475 149.134 101.77 149.548 102.105 149.745C102.38 149.922 102.892 149.981 103.168 149.784C103.444 149.587 103.404 149.331 103.03 149.094C102.656 148.858 102.341 148.266 102.243 147.793C102.144 147.32 102.42 147.142 102.853 147.418C103.286 147.694 103.955 147.872 104.467 147.832C104.979 147.793 104.979 147.517 104.467 147.28C103.955 147.044 103.227 146.531 102.794 146.078C102.38 145.664 102.518 145.565 103.168 145.841C103.778 146.117 104.92 146.453 105.668 146.531C106.416 146.61 106.908 146.433 106.731 146.117C106.554 145.802 105.944 145.368 105.353 145.151C104.743 144.974 104.014 144.402 103.68 143.909C103.345 143.417 103.581 143.219 104.231 143.495C104.841 143.771 105.668 144.008 106.042 144.107C106.416 144.205 106.456 143.831 106.18 143.318C105.904 142.805 106.082 142.431 106.633 142.49C107.184 142.549 107.086 142.253 106.396 141.879C105.707 141.504 104.92 140.854 104.684 140.4C104.408 139.947 104.723 139.612 105.373 139.612C106.022 139.651 106.574 139.375 106.613 139.001C106.652 138.626 106.16 138.074 105.55 137.7C104.94 137.325 104.487 136.812 104.526 136.497C104.566 136.221 105.038 136.044 105.491 136.122C105.944 136.201 106.042 135.886 105.727 135.334C105.412 134.821 105.215 134.033 105.353 133.619C105.452 133.303 105.53 132.554 105.491 132.101L105.55 132.081Z" fill="#5230D7"/>
<path d="M134.352 175.826C134.174 174.308 133.525 171.528 132.973 169.714C132.422 167.901 131.3 165.318 130.473 164.017C129.646 162.716 128.583 161.001 128.032 160.311C127.52 159.562 126.693 158.734 126.221 158.497C125.768 158.221 125.197 157.985 124.981 157.985C124.764 157.985 124.567 157.945 124.567 157.945H124.016C124.016 157.945 123.839 157.985 123.603 157.985C123.366 157.985 122.815 158.261 122.362 158.497C121.91 158.773 121.122 159.601 120.551 160.311C119.98 161.021 118.937 162.716 118.11 164.017C117.283 165.318 116.161 167.901 115.61 169.714C115.059 171.528 114.448 174.288 114.232 175.826C114.055 177.344 114.271 179.571 114.783 180.735C115.295 181.898 116.535 183.554 117.559 184.441C118.622 185.328 120.295 186.392 121.299 186.846C122.323 187.26 123.386 187.634 123.662 187.595H124.725C125 187.595 126.103 187.28 127.087 186.846C128.111 186.432 129.765 185.367 130.828 184.441C131.891 183.514 133.131 181.898 133.603 180.735C134.352 179.571 134.568 177.403 134.391 175.826H134.352Z" fill="white"/>
<path d="M118.248 170.463C118.209 170.049 117.933 170.049 117.697 170.463C117.461 170.877 117.598 171.527 117.972 171.902C118.346 172.277 118.937 172.651 119.272 172.73C119.606 172.809 120.02 173.144 120.158 173.42C120.335 173.696 120.807 174.031 121.221 174.07C121.634 174.11 122.185 174.524 122.461 174.958C122.737 175.391 123.288 175.924 123.76 176.16C124.233 176.397 125.06 176.436 125.65 176.2C126.241 175.963 126.615 175.588 126.477 175.234C126.339 174.918 125.926 174.721 125.512 174.82C125.138 174.918 124.449 174.82 123.996 174.642C123.544 174.465 122.973 174.09 122.756 173.854C122.54 173.617 122.303 173.104 122.205 172.651C122.166 172.237 121.693 171.863 121.181 171.823C120.669 171.784 120.079 171.823 119.803 171.863C119.528 171.902 119.114 171.823 118.78 171.587C118.642 171.449 118.366 170.897 118.268 170.483L118.248 170.463ZM127.363 173.834C126.989 173.972 126.753 173.735 126.812 173.38C126.871 173.026 127.127 172.493 127.363 172.316C127.599 172.139 128.288 171.941 128.879 171.902C129.469 171.863 130.178 171.449 130.395 170.936C130.611 170.423 130.906 170.423 131.005 170.936C131.103 171.449 131.103 172.139 130.966 172.454C130.828 172.828 130.355 173.203 129.902 173.282L128.524 173.518L127.363 173.834Z" fill="#5230D7"/>
<path d="M129.115 167.447C128.879 167.073 128.091 166.797 127.402 166.797C126.654 166.797 125.689 166.974 125.237 167.25C124.784 167.487 123.996 167.487 123.524 167.25C123.051 167.014 122.087 166.797 121.358 166.797C120.63 166.797 119.882 167.073 119.646 167.447C119.409 167.822 119.744 168.098 120.335 168.098C120.925 168.098 121.949 168.335 122.559 168.65C123.17 168.926 123.8 169.34 123.996 169.537C124.193 169.734 124.37 169.853 124.37 169.853C124.37 169.853 124.548 169.715 124.745 169.537C124.941 169.36 125.63 168.985 126.182 168.65C126.792 168.374 127.757 168.098 128.406 168.098C129.056 168.098 129.371 167.822 129.154 167.447H129.115Z" fill="#C6C2DF"/>
<path d="M131.438 180.695C130.828 181.622 129.272 182.962 128.564 183.199C127.855 183.435 126.615 183.435 126.064 183.337C125.512 183.238 124.725 182.726 124.685 182.233C124.646 181.74 125 178.428 125.197 178.113C125.394 177.797 125.296 177.6 124.961 177.659C124.626 177.718 124.134 177.699 123.8 177.659C123.465 177.62 123.386 177.837 123.563 178.113C123.741 178.388 124.213 181.681 124.115 182.233C124.016 182.785 123.189 183.258 122.638 183.337C122.087 183.416 121.024 183.337 120.335 183.159C119.587 182.982 118.346 181.306 117.835 180.715C117.382 180.163 117.008 180.301 117.146 180.715C117.283 181.267 117.559 181.779 118.031 182.469C118.642 183.297 119.331 184.086 120.158 184.46C120.709 184.697 121.732 184.835 122.422 184.874L124.036 184.973H124.725C124.902 184.973 125.65 184.933 126.339 184.874C127.028 184.815 128.052 184.638 128.603 184.46C129.154 184.283 129.981 183.908 130.414 183.494C131.379 182.568 132.088 181.188 132.225 180.754C132.324 180.143 131.851 180.104 131.438 180.715V180.695ZM112.027 171.765C102.971 182.686 112.204 191.715 112.204 191.715C112.952 191.262 113.09 190.276 112.48 189.625C110.255 187.319 106.377 181.247 112.027 171.765V171.765ZM136.714 171.765C145.77 182.686 136.537 191.715 136.537 191.715C135.789 191.262 135.651 190.276 136.261 189.625C138.486 187.319 142.325 181.247 136.714 171.765Z" fill="#5230D7"/>
<path d="M100.038 156.722C101.101 156.545 105.865 156.998 107.578 157.373C109.291 157.747 111.377 158.477 112.244 159.088C113.07 159.64 114.055 160.468 114.33 160.902C114.645 161.316 114.842 162.203 114.783 162.893C114.724 163.583 113.996 164.785 113.169 165.574C112.342 166.362 110.944 167.525 110.157 168.077C109.369 168.629 108.208 169.418 107.617 169.793C107.027 170.167 105.944 170.404 105.255 170.305C104.566 170.207 103.404 169.694 102.715 169.142C102.026 168.59 101.613 168.452 101.79 168.866C101.967 169.28 102.341 169.97 102.617 170.443C102.853 170.897 103.581 171.744 104.231 172.296C104.881 172.848 104.743 173.124 103.956 172.907C103.168 172.631 102.144 171.981 101.79 171.389C101.377 170.837 100.825 169.773 100.491 169.122C100.176 168.432 99.841 167.23 99.7426 166.441C99.6442 165.653 99.6442 164.588 99.7426 164.174C99.841 163.721 99.8804 163.859 99.8804 163.208C99.8804 162.893 99.7032 162.144 98.1677 163.997C97.9905 164.233 97.9314 164.312 97.5574 164.509C97.1833 164.647 96.2581 164.549 97.1833 163.997C98.0102 163.543 97.8724 162.893 97.0455 163.248C96.2187 163.602 95.195 163.484 95.569 163.07C95.9431 162.656 96.4549 162.834 97.3802 162.459C98.3448 162.084 98.4827 161.434 97.6164 161.434C96.8684 161.434 96.1793 161.434 95.6675 161.02C95.1162 160.645 95.2934 160.33 96.0809 160.369C96.829 160.409 98.3449 159.995 99.4473 159.482C100.55 158.97 97.3605 158.832 98.207 158.418C99.0339 157.964 100.786 158.378 102.046 158.418C103.306 158.457 103.522 158.181 102.597 157.728C101.633 157.274 101.633 157.353 100.983 157.215C100.294 157.077 98.9551 156.939 100.018 156.762L100.038 156.722ZM148.664 156.722C147.601 156.545 142.837 156.998 141.124 157.373C139.411 157.747 137.324 158.477 136.458 159.088C135.631 159.64 134.647 160.468 134.371 160.902C134.056 161.316 133.859 162.203 133.919 162.893C133.978 163.583 134.706 164.785 135.533 165.574C136.36 166.362 137.757 167.525 138.545 168.077C139.332 168.629 140.494 169.418 141.084 169.793C141.675 170.167 142.758 170.404 143.447 170.305C144.136 170.207 145.297 169.694 145.986 169.142C146.675 168.59 147.089 168.452 146.912 168.866C146.734 169.28 146.36 169.97 146.085 170.443C145.849 170.897 145.12 171.744 144.471 172.296C143.821 172.848 143.959 173.124 144.746 172.907C145.534 172.631 146.557 171.981 146.912 171.389C147.325 170.837 147.876 169.773 148.211 169.122C148.526 168.432 148.861 167.23 148.959 166.441C149.057 165.653 149.057 164.588 148.959 164.174C148.861 163.721 148.821 163.859 148.821 163.208C148.821 162.893 148.998 162.144 150.534 163.997C150.711 164.233 150.77 164.312 151.144 164.509C151.518 164.647 152.444 164.549 151.518 163.997C150.691 163.543 150.829 162.893 151.656 163.248C152.483 163.602 153.507 163.484 153.133 163.07C152.759 162.656 152.247 162.834 151.321 162.459C150.357 162.084 150.219 161.434 151.085 161.434C151.833 161.434 152.522 161.434 153.034 161.02C153.585 160.645 153.408 160.33 152.621 160.369C151.873 160.409 150.357 159.995 149.254 159.482C148.152 158.97 151.341 158.832 150.495 158.418C149.668 157.964 147.916 158.378 146.656 158.418C145.396 158.457 145.179 158.181 146.104 157.728C147.069 157.274 147.069 157.353 147.719 157.215C148.408 157.077 149.707 156.939 148.683 156.762L148.664 156.722Z" fill="white"/>
<path d="M129.942 191.025C129.942 191.025 129.056 195.244 132.206 197.137C128.544 196.171 128.091 189.862 128.091 189.862C128.091 189.862 126.713 195.323 128.544 200.843C125.355 197.61 125.729 190.71 125.729 190.71L124.292 203.169L122.855 190.71C122.855 190.71 123.229 197.61 120.039 200.843C121.89 195.343 120.492 189.862 120.492 189.862C120.492 189.862 120.039 196.151 116.378 197.137C119.567 195.244 118.642 191.025 118.642 191.025C118.642 191.025 115.964 194.042 112.224 193.667C116.712 192.425 116.516 191.025 118.425 188.522C120.276 188.837 122.225 189.862 124.252 189.902C126.28 189.902 128.229 188.837 130.08 188.522C131.97 191.025 131.792 192.405 136.281 193.667C132.619 194.042 129.942 191.025 129.942 191.025ZM103.129 163.801C103.03 164.116 102.617 162.598 102.814 161.77C103.05 160.844 103.463 160.43 104.054 159.956C107.657 157.216 112.559 161.533 112.834 162.046C113.07 162.499 113.287 164.215 113.11 164.175C112.933 164.136 112.007 162.223 111.397 162.874C111.259 163.012 111.436 163.327 110.747 164.964C110.57 165.338 109.133 167.546 107.657 167.743C103.444 168.295 103.444 163.485 103.444 163.485C103.444 163.485 103.207 163.485 103.129 163.801V163.801Z" fill="#5230D7"/>
<path d="M105.742 161.785C106.44 161.482 106.866 160.913 106.694 160.513C106.521 160.114 105.814 160.035 105.116 160.338C104.418 160.641 103.992 161.211 104.165 161.61C104.337 162.01 105.044 162.088 105.742 161.785Z" fill="white"/>
<path d="M104.113 164.254C104.35 165.082 105.137 165.87 106.141 166.344C107.243 166.797 108.405 166.718 109.153 166.245C108.326 166.344 107.303 166.206 106.338 165.792C105.413 165.417 104.625 164.865 104.113 164.274V164.254Z" fill="white"/>
<path d="M145.612 163.801C145.711 164.116 146.124 162.598 145.927 161.77C145.691 160.844 145.278 160.43 144.687 159.956C141.084 157.216 136.182 161.533 135.907 162.046C135.67 162.499 135.454 164.215 135.631 164.175C135.808 164.136 136.734 162.223 137.344 162.874C137.482 163.012 137.304 163.327 137.993 164.964C138.171 165.338 139.608 167.546 141.084 167.743C145.297 168.295 145.297 163.485 145.297 163.485C145.297 163.485 145.573 163.485 145.612 163.801Z" fill="#5230D7"/>
<path d="M144.704 161.647C144.877 161.247 144.451 160.678 143.753 160.375C143.054 160.072 142.348 160.15 142.175 160.55C142.002 160.949 142.428 161.519 143.127 161.822C143.825 162.125 144.531 162.046 144.704 161.647Z" fill="white"/>
<path d="M144.785 164.255C144.549 165.083 143.762 165.871 142.758 166.345C141.655 166.798 140.494 166.719 139.746 166.246C140.572 166.345 141.596 166.207 142.561 165.793C143.486 165.418 144.274 164.866 144.785 164.275V164.255Z" fill="white"/>
</g>
<path d="M87.9302 32.4276C87.1427 30.0225 86.3552 28.406 85.115 27.1443V27.1049H94.1314V27.1443C92.9306 28.4848 92.5565 30.2985 93.5802 32.9402L97.5175 43.8222L101.179 33.7681C102.341 30.7519 101.868 28.2088 100.156 27.1049V27.0654H105.569V27.1049C104.27 28.3074 103.266 30.2591 102.518 32.467L96.7301 48.3367H93.8165L87.9499 32.4079L87.9302 32.4276ZM110.452 46.5033C109.625 47.7058 108.286 48.7704 106.376 48.7704C104.624 48.7704 103.089 47.8832 103.089 45.8527C103.089 42.6985 107.066 41.358 110.353 40.668V38.8543C110.353 37.1392 109.664 36.3506 107.577 36.3506C106.416 36.3506 105.136 36.5872 103.837 37.1392L103.699 36.9026C105.077 35.1875 107.361 33.709 110.491 33.709C113.621 33.709 115.019 35.1875 115.019 37.5138V44.9656C115.019 45.6556 115.334 46.2667 116.259 46.2667C116.574 46.2667 117.007 46.1681 117.362 45.9513L117.401 46.0893C116.988 47.0553 115.964 48.7309 113.523 48.7309C111.771 48.7309 110.648 47.8044 110.432 46.5033H110.452ZM110.353 45.9513V41.2791C108.325 41.8311 107.203 42.9942 107.203 44.3347C107.203 45.4979 107.892 46.2273 109.152 46.2273C109.605 46.2273 110.038 46.1287 110.353 45.9513ZM118.267 48.3169V48.2775C118.72 46.8975 119.015 45.695 119.015 43.2308L118.976 39.9386C118.976 37.77 118.562 36.5675 117.539 35.3058V35.2664L123.504 33.5513V36.4689L123.642 36.5084C124.429 35.2664 125.945 33.7287 128.504 33.7287C131.063 33.7287 132.855 35.3058 132.855 37.7503V43.1716C132.855 45.6161 133.091 46.8384 133.544 48.2578V48.3564H127.481V48.3169C127.933 46.937 128.17 45.6359 128.17 43.2702V38.046C128.17 36.8041 127.559 35.9169 126.181 35.9169C125.118 35.9169 124.193 36.5675 123.642 37.3561V43.2308C123.642 45.6359 123.878 46.8384 124.331 48.2775V48.3169H118.267ZM136.162 44.7093V34.7933H134.548V34.5567L140.513 30.8111H140.828V34.1821H144.293V34.8327H140.828V44.591C140.828 46.3456 141.753 46.8975 142.915 46.8975C143.939 46.8975 144.529 46.4441 144.529 46.4441L144.628 46.5427C143.939 47.7058 142.462 48.8098 140.139 48.8098C137.836 48.7112 136.162 47.6072 136.162 44.6896V44.7093ZM152.896 46.523C152.069 47.7255 150.73 48.7901 148.821 48.7901C147.069 48.7901 145.533 47.903 145.533 45.8724C145.533 42.7182 149.51 41.3777 152.797 40.6877V38.874C152.797 37.1589 152.108 36.3704 150.022 36.3704C148.86 36.3704 147.581 36.6069 146.281 37.1589L146.143 36.9815C147.521 35.2664 149.805 33.7878 152.935 33.7878C156.065 33.7878 157.463 35.2664 157.463 37.5926V45.0444C157.463 45.7344 157.778 46.3456 158.703 46.3456C159.018 46.3456 159.452 46.247 159.806 46.0301L159.845 46.1681C159.432 47.1341 158.408 48.8098 155.967 48.8098C154.156 48.7704 153.093 47.8438 152.876 46.5427L152.896 46.523ZM152.797 45.971V41.2988C150.77 41.8508 149.648 43.0139 149.648 44.3545C149.648 45.5176 150.337 46.247 151.597 46.247C152.01 46.247 152.423 46.1484 152.797 45.971Z" fill="#1C171E"/>
<path d="M166.618 42.6987L166.066 44.2758C193.116 59.554 211.464 88.5728 211.464 121.869C211.464 145.664 202.211 167.98 185.438 184.776C168.665 201.572 146.321 210.838 122.618 210.838C73.6181 210.838 33.7725 170.937 33.7725 121.81C33.7725 87.4688 53.3213 57.6024 81.8471 42.7973L81.2959 41.2793C52.1795 56.3801 32.1582 86.7788 32.1582 121.83C32.1582 171.785 72.7519 212.474 122.677 212.474C146.852 212.474 169.59 203.031 186.659 185.939C203.727 168.848 213.157 146.078 213.157 121.869C213.117 87.8828 194.336 58.2135 166.657 42.7184L166.618 42.6987Z" fill="#63676D"/>
<path d="M78.0279 66.9662C80.1934 68.7799 81.3156 71.4018 81.3156 74.8912H73.1259C73.1259 73.4127 72.7125 72.3087 71.8857 71.5596C71.0589 70.771 69.858 70.3964 68.3224 70.3964C67.0231 70.3964 65.96 70.6724 65.1726 71.2244C64.3851 71.7764 64.0111 72.5255 64.0111 73.4521C64.0111 74.1421 64.1882 74.6941 64.6213 75.1672C65.0545 75.6403 65.6844 75.9952 66.5703 76.3303C67.4562 76.6654 68.7358 77.0203 70.5076 77.4934C73.0866 78.144 75.1734 78.7945 76.7877 79.4845C78.402 80.1745 79.7013 81.1996 80.725 82.5402C81.7487 83.8807 82.2408 85.6352 82.2408 87.8629C82.2408 89.9526 81.6896 91.8057 80.5675 93.3631C79.4453 94.9205 77.9295 96.1427 75.9411 96.9707C73.9528 97.7987 71.5904 98.2718 68.9524 98.2718C64.7001 98.2718 61.3731 97.3058 58.9713 95.3147C56.5695 93.3236 55.3687 90.544 55.3687 86.9758H63.7355C63.7355 90.3074 65.5466 91.9831 69.0902 91.9831C70.5667 91.9831 71.7676 91.6677 72.5944 91.0565C73.4212 90.4454 73.8937 89.6174 73.8937 88.5529C73.8937 87.7643 73.7166 87.1138 73.2834 86.6998C72.8503 86.2858 72.2597 85.8718 71.4723 85.5958C70.6848 85.3198 69.4446 84.9453 67.6728 84.4918C65.0348 83.8413 62.9086 83.1513 61.3337 82.5007C59.7588 81.8502 58.4594 80.8251 57.3964 79.5437C56.3727 78.2426 55.8214 76.488 55.8214 74.3195C55.8214 72.3284 56.3333 70.6133 57.3964 69.1348C58.4201 67.6562 59.8966 66.4931 61.8259 65.6651C63.7748 64.8371 65.9797 64.4232 68.5193 64.4232C72.6338 64.3246 75.7836 65.2117 77.9492 67.0057L78.0279 66.9662ZM109.408 66.3157C111.771 67.6957 113.562 69.6473 114.862 72.1904C116.161 74.7335 116.751 77.7497 116.751 81.2193C116.751 84.689 116.102 87.7052 114.862 90.2483C113.562 92.7914 111.771 94.7825 109.408 96.123C107.046 97.503 104.27 98.1535 101.081 98.1535C97.8917 98.1535 95.0765 97.4635 92.7141 96.123C90.3517 94.743 88.5602 92.7914 87.2609 90.2483C85.9616 87.7052 85.371 84.689 85.371 81.2193C85.371 77.7497 86.0207 74.7335 87.2609 72.1904C88.5602 69.6473 90.3517 67.6562 92.7141 66.3157C95.0765 64.9357 97.8523 64.2852 101.081 64.2852C104.31 64.2852 107.046 64.9357 109.408 66.3157V66.3157ZM95.5883 73.7675C94.289 75.522 93.6394 78.0257 93.6394 81.2193C93.6394 84.413 94.289 86.9166 95.5883 88.6712C96.8877 90.4257 98.7382 91.3523 101.081 91.3523C103.424 91.3523 105.235 90.4651 106.534 88.6712C107.833 86.9166 108.483 84.413 108.483 81.2193C108.483 78.0257 107.833 75.522 106.534 73.7675C105.235 72.013 103.384 71.0864 101.081 71.0864C98.7185 71.1259 96.868 72.013 95.5883 73.7675ZM143.25 65.8031C145.336 66.8282 146.99 68.2476 148.152 70.1599C149.352 72.013 149.963 74.2406 150.041 76.7246H141.911C141.734 74.9701 141.123 73.5704 140.06 72.6044C138.997 71.6384 137.659 71.1259 135.946 71.1259C133.78 71.1259 132.107 72.0524 130.867 73.8661C129.626 75.6798 129.016 78.1637 129.016 81.2785C129.016 84.3933 129.626 86.8772 130.867 88.6909C132.107 90.5046 133.78 91.4311 135.867 91.4311C137.58 91.4311 138.958 90.9186 140.021 89.9131C141.084 88.9077 141.734 87.508 141.97 85.6549H150.199C149.884 89.6766 148.486 92.7914 145.907 94.9599C143.368 97.1284 139.982 98.2521 135.828 98.2521C132.737 98.2521 130.04 97.5621 127.776 96.2216C125.512 94.8416 123.76 92.8899 122.559 90.3468C121.358 87.8038 120.748 84.7875 120.748 81.2785C120.748 77.7694 121.358 74.7532 122.598 72.2101C123.839 69.667 125.61 67.7154 127.874 66.3354C130.138 64.9554 132.816 64.3049 135.966 64.3049C138.741 64.3443 141.182 64.8569 143.269 65.882L143.25 65.8031ZM182.505 67.1437C184.217 67.8928 185.556 68.9968 186.521 70.3373C187.446 71.7173 187.958 73.2944 187.958 75.1081C187.958 76.9217 187.643 78.3411 186.993 79.6028C186.344 80.8645 185.477 81.9093 184.316 82.7964C183.213 83.6836 181.737 84.551 179.965 85.4775C178.154 86.4041 176.776 87.1926 175.851 87.8432C174.925 88.4937 174.276 89.0457 173.961 89.5583C173.646 90.0709 173.409 90.6228 173.35 91.234H188.706V97.4833H164.196C164.157 97.2073 164.157 96.7341 164.157 96.0441C164.157 93.8756 164.432 91.9634 164.944 90.406C165.456 88.8486 166.381 87.3898 167.622 86.0492C168.921 84.7087 170.673 83.4076 172.976 82.1065C174.689 81.1405 176.028 80.3519 176.953 79.7014C177.8 79.1494 178.528 78.4594 179.119 77.6708C179.63 76.9217 179.906 76.0937 179.906 75.1672C179.906 74.2012 179.591 73.4127 178.981 72.8607C178.37 72.3087 177.504 72.0327 176.441 72.0327C175.102 72.0327 174.079 72.4073 173.39 73.1958C172.701 73.9844 172.327 75.0883 172.327 76.5669H164.511C164.55 73.1367 165.614 70.5542 167.7 68.7011C169.787 66.848 172.701 65.9214 176.382 65.9214C178.744 66.02 180.772 66.3748 182.485 67.1634L182.505 67.1437ZM98.2263 109.548V118.754H95.4112V109.548H91.8479V107.143H101.75V109.548H98.246H98.2263ZM109.546 118.754H106.731V114.358L102.754 107.143H105.904L106.928 109.233L108.168 112.15H108.207C108.522 111.224 108.956 110.258 109.408 109.233L110.432 107.143H113.582L109.605 114.358V118.754H109.566H109.546ZM123.051 108.148C123.799 108.838 124.154 109.765 124.154 110.968C124.154 112.17 123.78 113.097 123.051 113.787C122.323 114.477 121.201 114.812 119.763 114.812H117.952V118.695H115.137V107.084H119.763C121.201 107.123 122.264 107.458 123.051 108.148ZM117.913 112.584H119.35C120.649 112.584 121.299 112.071 121.299 111.007C121.299 109.942 120.649 109.39 119.35 109.39H117.913V112.584ZM129.371 109.489V111.717H134.371V114.023H129.371V116.389H134.863V118.754H126.536V107.143H134.725V109.509H129.371V109.489ZM142.226 118.754V107.143H145.041V118.754H142.226ZM148.368 118.754V107.143H151.183V118.754H148.368Z" fill="#1C171E"/>
</svg>
