<svg width="245" height="245" viewBox="0 0 245 245" fill="none" xmlns="http://www.w3.org/2000/svg">
<path d="M85.7979 50.0518H161.64" stroke="#F6F8FA" stroke-width="0.460811" stroke-miterlimit="10"/>
<path d="M123.5 237.768C187.072 237.768 238.607 186.161 238.607 122.501C238.607 58.8411 187.072 7.23438 123.5 7.23438C59.9279 7.23438 8.39258 58.8411 8.39258 122.501C8.39258 186.161 59.9279 237.768 123.5 237.768Z" fill="white"/>
<path d="M168.163 41.0583C171.477 41.2843 174.564 41.4349 177.727 41.5855C177.803 41.6608 177.803 41.8114 177.878 41.8867C175.393 43.9201 172.983 45.9534 170.422 48.0621C171.251 51.1497 172.004 54.2374 172.832 57.3251C172.682 57.4004 172.606 57.4757 172.456 57.551C169.82 55.8942 167.184 54.1621 164.473 52.43C161.762 54.1621 159.051 55.8942 156.415 57.6263C156.339 57.551 156.189 57.4757 156.114 57.4004C156.867 54.3127 157.695 51.225 158.523 48.0621C155.963 45.9534 153.478 43.9201 150.767 41.6608C154.381 41.4349 157.62 41.2843 160.858 41.0583C162.063 38.046 163.193 35.1089 164.322 32.2472C164.473 32.2472 164.548 32.1719 164.699 32.1719C165.753 35.0336 166.883 37.9707 168.163 41.0583Z" fill="#FAC70C"/>
<path d="M223.214 119.605C220.654 121.564 218.093 123.597 215.382 125.63C216.211 128.868 217.039 132.031 217.943 135.496C214.93 133.613 212.294 131.881 209.433 130.073C206.797 131.73 204.086 133.462 201.375 135.194C201.299 135.119 201.149 135.044 201.073 134.969C201.826 131.956 202.655 128.944 203.483 125.781C201.073 123.747 198.588 121.789 196.103 119.756C196.103 119.605 196.178 119.53 196.178 119.38C199.341 119.154 202.504 119.003 205.743 118.777C206.948 115.765 208.077 112.828 209.282 109.891C209.433 109.891 209.508 109.891 209.659 109.891C210.788 112.828 211.918 115.689 213.198 118.852C216.512 119.003 219.901 119.229 223.214 119.38C223.214 119.38 223.214 119.53 223.214 119.605Z" fill="#FAC70B"/>
<path d="M217.942 84.211C217.942 98.3691 206.344 109.816 192.186 109.816C178.028 109.816 166.431 98.2185 166.431 84.1357C166.431 69.9023 178.028 58.4553 192.337 58.5306C206.57 58.5306 218.017 69.9776 217.942 84.211ZM212.444 84.1357C212.444 72.9147 203.407 63.8776 192.262 63.8776C180.965 63.8776 171.928 72.9147 171.928 84.1357C171.928 95.2814 180.965 104.243 192.262 104.243C203.483 104.243 212.444 95.2814 212.444 84.1357Z" fill="#3555A1"/>
<path d="M94.4358 138.884C94.4358 128.944 94.4358 118.927 94.4358 108.836C94.963 108.761 95.3395 108.761 95.7914 108.761C100.461 108.836 105.205 108.761 109.799 109.213C118.459 110.041 123.656 116.743 122.827 125.404C122.074 132.935 117.706 137.604 110.175 138.658C107.163 139.035 96.6951 139.261 94.4358 138.884ZM102.343 133.236C106.862 133.311 111.23 133.462 113.715 128.944C115.598 125.63 115.221 120.208 112.962 117.497C110.1 114.183 106.259 114.334 102.343 114.409C102.343 120.81 102.343 126.91 102.343 133.236Z" fill="#163182"/>
<path d="M174.79 124.728C177.501 126.008 178.781 128.267 179.911 130.527C181.267 133.238 182.547 135.949 183.978 138.886C181.191 138.886 178.556 138.886 175.694 138.886C174.865 137.229 173.962 135.346 173.058 133.539C172.606 132.56 172.154 131.656 171.627 130.677C170.497 128.418 168.69 127.213 166.13 127.439C165.678 127.514 165.226 127.514 164.548 127.514C164.548 131.28 164.548 134.97 164.548 138.811C161.912 138.811 159.427 138.811 156.791 138.811C156.791 128.794 156.791 118.778 156.791 108.687C157.168 108.687 157.544 108.612 157.921 108.612C161.762 108.612 165.678 108.536 169.518 108.687C171.552 108.762 173.585 109.139 175.543 109.666C178.254 110.494 179.76 112.528 180.062 115.314C180.514 119.381 179.685 122.544 174.79 124.728ZM164.548 114.335C164.548 116.896 164.548 119.381 164.548 122.167C166.28 122.092 168.012 122.092 169.594 121.866C171.627 121.489 172.38 120.284 172.305 117.875C172.23 115.766 171.326 114.636 169.293 114.486C167.786 114.184 166.28 114.335 164.548 114.335Z" fill="#143081"/>
<path d="M87.808 110.343C87.808 112.377 87.808 114.259 87.808 116.368C87.3562 116.142 86.9043 115.992 86.5278 115.841C82.9882 114.184 79.3734 113.205 75.4574 113.883C71.6919 114.485 69.3573 116.669 68.4536 120.359C67.7758 122.92 67.8511 125.631 68.6795 128.192C69.6586 131.204 71.6919 133.162 74.8549 133.764C77.0388 134.216 79.2228 134.141 81.5574 133.463C81.5574 131.505 81.5574 129.622 81.5574 127.589C80.0512 127.589 78.6203 127.589 77.0388 127.589C77.0388 125.782 77.0388 124.125 77.0388 122.393C80.9549 122.393 84.871 122.393 88.9377 122.393C88.9377 127.213 88.9377 131.882 88.9377 136.852C87.7327 137.304 86.4525 137.831 85.0969 138.208C80.9549 139.488 76.7376 139.864 72.445 139.187C65.6672 138.057 61.0733 133.388 60.1696 126.61C59.4918 121.188 60.3956 116.217 64.5376 112.301C66.8721 110.117 69.7339 108.912 72.8215 108.461C77.4154 107.783 81.9339 108.159 86.3018 109.741C86.829 109.891 87.2809 110.117 87.808 110.343Z" fill="#163282"/>
<path d="M135.479 128.566C135.479 132.181 135.479 135.495 135.479 138.884C132.843 138.884 130.283 138.884 127.722 138.884C127.722 128.792 127.722 118.852 127.722 108.76C128.099 108.685 128.4 108.685 128.777 108.685C132.919 108.685 137.061 108.534 141.203 108.76C143.236 108.836 145.269 109.212 147.152 109.89C150.918 111.321 152.65 114.559 152.574 119.002C152.499 123.069 150.466 126.307 146.776 127.512C144.893 128.115 142.935 128.341 140.977 128.566C139.169 128.717 137.437 128.566 135.479 128.566ZM135.404 114.333C135.404 115.839 135.404 117.27 135.404 118.701C135.404 120.132 135.404 121.563 135.404 123.22C137.663 123.069 139.621 123.144 141.579 122.768C143.613 122.391 144.592 120.659 144.516 118.4C144.441 116.291 143.311 114.634 141.278 114.408C139.395 114.182 137.513 114.333 135.404 114.333Z" fill="#143081"/>
<path d="M45.9363 64.7803C46.6141 66.4371 47.1413 67.7173 47.5931 68.9976C48.045 70.2025 48.5721 71.4075 48.9487 72.6124C49.3252 73.8174 50.003 74.2692 51.208 74.3445C53.6178 74.4198 56.0277 74.5704 58.3623 74.7211C58.6635 74.7211 58.8895 74.7964 59.5673 74.7964C56.8561 77.0556 54.3709 79.089 51.8104 81.1976C52.6388 84.2853 53.3919 87.373 54.2203 90.4606C54.145 90.5359 53.9944 90.6113 53.9191 90.6866C51.2833 89.0298 48.6474 87.2977 45.861 85.5656C43.1499 87.2977 40.4388 89.0298 37.3511 90.9878C38.2548 87.5236 39.0832 84.4359 39.9116 81.1976C37.4264 79.1643 34.9412 77.1309 32.1548 74.7964C35.6943 74.5704 38.8573 74.3445 42.1709 74.1186C43.4511 71.1062 44.5808 68.1692 45.9363 64.7803Z" fill="#FAC70B"/>
<path d="M179.535 192.806C177.125 194.764 174.639 196.797 172.079 198.906C172.907 201.993 173.66 205.156 174.489 208.244C174.414 208.319 174.263 208.395 174.188 208.395C171.552 206.738 168.916 205.006 166.13 203.274C163.494 204.93 160.858 206.662 158.222 208.319C158.072 208.244 157.921 208.169 157.846 208.093C158.599 205.081 159.427 201.993 160.18 198.906C157.62 196.797 155.21 194.764 152.423 192.504C156.038 192.278 159.201 192.128 162.515 191.902C163.72 188.89 164.849 185.877 166.205 182.488C167.56 185.877 168.69 188.814 169.895 191.902C173.133 192.128 176.296 192.278 179.535 192.429C179.459 192.58 179.535 192.655 179.535 192.806Z" fill="#FAC80C"/>
<path d="M107.313 34.4315C110.928 34.2056 114.091 34.055 117.405 33.8291C118.61 30.8167 119.739 27.8797 120.944 24.8673C121.095 24.8673 121.17 24.8673 121.321 24.792C122.526 27.8044 123.656 30.7414 124.86 33.7538C128.099 33.9797 131.337 34.1303 134.952 34.3562C132.165 36.6155 129.68 38.7242 127.195 40.7575C128.023 43.9958 128.777 47.0834 129.68 50.5477C126.593 48.5896 123.957 46.9328 121.17 45.1254C118.384 46.9328 115.673 48.5896 112.66 50.5477C113.564 47.1588 114.317 44.1464 115.221 40.7575C112.736 38.8748 110.175 36.7661 107.313 34.4315Z" fill="#FAC80C"/>
<path d="M39.6104 175.107C40.4388 172.095 41.1919 169.007 42.0203 165.844C39.5351 163.811 37.0499 161.778 34.5647 159.669C34.64 159.594 34.64 159.443 34.7153 159.368C37.803 159.217 40.966 158.991 44.2796 158.841C45.4845 155.904 46.6141 152.891 47.8191 149.879C47.8944 149.879 48.045 149.879 48.1203 149.879C49.2499 152.816 50.4549 155.828 51.6598 158.841C54.8228 159.067 57.9858 159.217 61.6006 159.443C59.1154 161.853 56.4796 163.66 53.9944 165.92C54.8228 169.007 55.5759 172.17 56.4796 175.635C53.4673 173.752 50.8314 172.02 47.9697 170.212C45.2586 171.944 42.5474 173.677 39.761 175.409C39.761 175.333 39.6857 175.183 39.6104 175.107Z" fill="#FAC70B"/>
<path d="M202.504 158.842C205.818 159.068 208.98 159.218 212.52 159.444C209.809 161.703 207.324 163.737 204.763 165.845C205.592 168.933 206.345 172.021 207.173 175.033C207.022 175.108 206.947 175.184 206.797 175.259C204.161 173.602 201.525 171.87 198.814 170.138C196.103 171.87 193.467 173.527 190.831 175.184C190.68 175.108 190.605 175.033 190.454 174.958C191.208 171.87 192.036 168.858 192.789 165.695C190.229 163.586 187.819 161.553 185.032 159.293C188.647 159.068 191.735 158.917 195.048 158.691C196.253 155.679 197.458 152.666 198.738 149.277C200.094 152.742 201.224 155.679 202.504 158.842Z" fill="#FAC70B"/>
<path d="M27.2597 125.705C24.7745 123.671 22.2893 121.638 19.8794 119.605C19.9547 119.529 19.9547 119.379 20.03 119.303C23.193 119.078 26.356 118.927 29.5942 118.701C30.7992 115.689 31.9288 112.752 33.1338 109.739C33.2844 109.739 33.3597 109.739 33.5103 109.739C34.64 112.676 35.7696 115.538 37.0498 118.626C40.2128 118.852 43.3758 119.002 46.5388 119.228C46.6141 119.304 46.6894 119.454 46.7647 119.529C44.3548 121.563 41.8696 123.521 39.3091 125.629C40.1375 128.717 40.9659 131.88 41.8696 135.42C38.8573 133.462 36.1461 131.729 33.3597 129.997C30.6486 131.729 27.9375 133.462 24.8498 135.42C25.6029 132.031 26.4313 128.943 27.2597 125.705Z" fill="#FAC70B"/>
<path d="M64.9143 45.8787C68.0773 45.7281 71.1649 45.5021 74.4785 45.2762C75.6082 42.3392 76.8131 39.3268 77.9427 36.3898C78.0934 36.3898 78.1687 36.3145 78.3193 36.3145C79.4489 39.2515 80.6539 42.1886 81.7835 45.2762C85.0218 45.5021 88.1848 45.6528 91.8749 45.8787C89.1638 48.138 86.6786 50.1713 84.1181 52.28C84.9465 55.3676 85.6996 58.38 86.4527 61.4676C86.3773 61.543 86.2267 61.6936 86.1514 61.7689C83.5156 60.1121 80.8045 58.38 78.0934 56.6479C75.3822 58.38 72.5958 60.1121 69.5834 62.0701C70.4871 58.6059 71.3155 55.5182 72.1439 52.28C69.6588 50.2466 67.2489 48.2133 64.7637 46.1799C64.9143 46.1046 64.9143 46.0293 64.9143 45.8787Z" fill="#FAC70B"/>
<path d="M76.3612 199.58C73.5747 201.312 70.9389 203.044 68.3031 204.701C68.2278 204.626 68.0772 204.551 68.0019 204.551C68.755 201.463 69.5834 198.451 70.4118 195.212C67.9266 193.179 65.5167 191.146 63.0315 189.112C63.0315 189.037 63.1068 188.886 63.1068 188.811C66.2698 188.585 69.4328 188.359 72.671 188.209C73.876 185.196 75.0056 182.184 76.3612 178.795C77.6414 182.109 78.7711 185.046 80.0513 188.133C83.2143 188.359 86.3773 188.585 89.5403 188.736C89.6156 188.811 89.6909 188.962 89.7662 189.037C87.3563 191.07 84.9464 193.028 82.3859 195.137C83.139 198.149 83.9674 201.237 84.7958 204.325C84.7205 204.4 84.6452 204.475 84.5699 204.626C81.8587 203.044 79.1476 201.312 76.3612 199.58Z" fill="#FAC70B"/>
<path d="M129.454 220.215C126.668 218.483 123.957 216.751 121.095 214.943C118.911 216.299 116.878 217.73 114.694 219.01C114.091 219.387 113.338 219.688 112.66 219.989C113.489 216.902 114.242 213.814 115.07 210.576C112.585 208.542 110.1 206.509 107.313 204.174C110.928 203.948 114.091 203.722 117.33 203.497C118.535 200.484 119.664 197.472 121.02 194.158C122.3 197.472 123.505 200.409 124.71 203.497C127.948 203.722 131.111 203.948 134.801 204.174C132.09 206.434 129.605 208.392 127.12 210.5C127.873 213.814 128.701 216.977 129.454 220.215Z" fill="#FAC70C"/>
<path d="M206.495 82.4038C198.287 86.4705 192.714 93.0223 187.216 99.8001C183.677 95.131 179.987 90.8384 174.64 87.7507C177.727 86.2445 180.664 84.7383 183.752 83.2322C184.957 85.9433 186.087 88.5791 187.367 91.5162C187.819 90.7631 188.195 90.3112 188.497 89.784C191.735 84.3618 195.5 79.2408 200.395 75.1741C202.353 73.5926 204.387 72.1617 207.023 71.1074C206.269 75.0235 205.215 78.7136 206.495 82.4038Z" fill="#F28538"/>
</svg>
