<svg width="173" height="30" viewBox="0 0 173 30" fill="none" xmlns="http://www.w3.org/2000/svg">
<g clip-path="url(#clip0_7626_55052)">
<path d="M63.4482 15.0071C63.4482 6.48882 69.3379 0 77.8394 0C85.0173 0 90.0485 4.63059 91.3747 10.6235H84.5479C83.6523 8.14412 81.2338 6.28235 77.8403 6.28235C73.005 6.28235 69.8444 10.0456 69.8444 15.0053C69.8444 20.0903 73.0032 23.8932 77.8403 23.8932C81.7006 23.8932 84.5091 21.7024 85.0173 19.0571H77.5667V13.6826H91.8812C92.2315 23.8526 86.46 30.0115 77.8403 30.0115C69.2991 30.0132 63.4482 23.565 63.4482 15.0071V15.0071ZM94.4541 18.6856C94.4541 11.865 98.7432 7.11 105.023 7.11C111.81 7.11 115.36 12.4015 115.36 18.48V20.3391H100.187C100.383 23.1088 102.293 25.0932 105.141 25.0932C107.52 25.0932 109.12 23.8526 109.704 22.4885H115.164C114.229 27.0768 110.483 30.0115 104.906 30.0115C98.9391 30.0132 94.4541 25.2591 94.4541 18.6856V18.6856ZM109.744 16.0818C109.51 13.7674 107.716 11.9894 105.023 11.9894C103.874 11.9828 102.761 12.3944 101.893 13.1473C101.025 13.9002 100.46 14.9432 100.304 16.0818H109.744ZM120.466 21.9115V12.6503H117.151V7.68882H119.101C120.193 7.68882 120.778 6.90353 120.778 5.74588V1.73559H126.512V7.64735H131.895V12.6494H126.512V21.5788C126.512 23.1909 127.37 24.1844 129.164 24.1844H131.816V29.475H127.643C123.157 29.475 120.466 26.7053 120.466 21.9115V21.9115ZM135.987 7.64824H141.682V10.9562H141.994C142.696 9.34412 144.529 7.48324 147.298 7.48324H149.288V13.5185H146.908C143.944 13.5185 142.033 15.7924 142.033 19.5538V29.475H135.987V7.64824ZM149.949 18.5621C149.949 12.1121 154.395 7.11 161.065 7.11C167.656 7.11 172.142 12.1121 172.142 18.5621C172.142 25.0103 167.656 30.0132 161.026 30.0132C154.435 30.0132 149.949 25.0103 149.949 18.5621ZM166.018 18.5621C166.018 15.2541 163.912 12.8974 161.026 12.8974C158.179 12.8974 156.072 15.2541 156.072 18.5621C156.072 21.9097 158.179 24.2259 161.026 24.2259C163.912 24.2259 166.018 21.87 166.018 18.5612V18.5621ZM7.56439 29.4441L0.48351 19.7497C0.169214 19.3129 0.00012207 18.7883 0.00012207 18.2501C0.00012207 17.712 0.169214 17.1874 0.48351 16.7506L7.56439 7.05618H15.1262L7.90939 16.9385C7.38263 17.6603 7.38263 18.84 7.90939 19.5618L15.127 29.4441H7.56439ZM24.5065 29.4441L31.5882 19.7497C32.2323 18.8674 32.2323 17.6329 31.5882 16.7497L24.5065 7.05706H16.9438L24.1615 16.9385C24.6882 17.6594 24.6882 18.84 24.1615 19.5609L16.9438 29.4432H24.5065V29.445V29.4441Z" fill="#535157"/>
<path opacity="0.43" d="M36.3838 29.4441L43.4638 19.7497C44.108 18.8674 44.108 17.633 43.4638 16.7497L36.3838 7.05707H28.8203L36.038 16.9385C36.5647 17.6594 36.5647 18.84 36.038 19.5609L28.8203 29.4432H36.3838V29.445V29.4441Z" fill="#535157"/>
<path opacity="0.11" d="M48.2603 29.4441L55.3403 19.7497C55.9844 18.8674 55.9844 17.633 55.3403 16.7497L48.2603 7.05707H40.6976L47.9153 16.9385C48.442 17.6594 48.442 18.84 47.9153 19.5609L40.6976 29.4432H48.2603V29.445V29.4441Z" fill="#535157"/>
</g>
<defs>
<clipPath id="clip0_7626_55052">
<rect width="172.941" height="30" fill="white"/>
</clipPath>
</defs>
</svg>
