<svg width="461.228076171875px" height="150.79999999999998px" xmlns="http://www.w3.org/2000/svg" viewBox="19.385961914062506 -0.3999999999999915 461.228076171875 150.79999999999998" style="background: rgba(0, 0, 0, 0);" preserveAspectRatio="xMidYMid"><defs><filter id="editing-hole" x="-100%" y="-100%" width="300%" height="300%"><feFlood flood-color="#000" result="black"></feFlood><feMorphology operator="dilate" radius="2" in="SourceGraphic" result="erode"></feMorphology><feGaussianBlur in="erode" stdDeviation="4" result="blur"></feGaussianBlur><feOffset in="blur" dx="2" dy="2" result="offset"></feOffset><feComposite operator="atop" in="offset" in2="black" result="merge"></feComposite><feComposite operator="in" in="merge" in2="SourceGraphic" result="inner-shadow"></feComposite></filter></defs><g filter="url(#editing-hole)"><g transform="translate(89.10418677330017, 104.1349983215332)"><path d="M35.03-26.73L51.79-28.22L51.79-28.22Q45.82-15.11 45.82 0.08L45.82 0.08L45.82 0.08Q43.58 1.66 40.30 1.66L40.30 1.66L40.30 1.66Q37.02 1.66 34.94 0.12L34.94 0.12L34.94 0.12Q32.87-1.41 32.45-2.99L32.45-2.99L32.45-2.99Q30.38-0.83 27.02 0.42L27.02 0.42L27.02 0.42Q23.66 1.66 20.09 1.66L20.09 1.66L20.09 1.66Q16.52 1.66 13.40 0.50L13.40 0.50L13.40 0.50Q10.29-0.66 7.89-3.24L7.89-3.24L7.89-3.24Q2.57-8.88 2.57-19.59L2.57-19.59L2.57-19.59Q2.57-36.19 11.45-46.15L11.45-46.15L11.45-46.15Q20.58-56.44 36.77-56.44L36.77-56.44L36.77-56.44Q47.97-56.44 51.96-50.63L51.96-50.63L51.96-50.63Q53.20-48.80 53.20-46.60L53.20-46.60L53.20-46.60Q53.20-44.41 52.25-42.54L52.25-42.54L52.25-42.54Q51.29-40.67 49.80-39.18L49.80-39.18L49.80-39.18Q46.23-35.86 41.83-35.86L41.83-35.86L41.83-35.86Q40.09-35.86 38.43-36.44L38.43-36.44L38.43-36.44Q38.76-38.93 38.76-41.83L38.76-41.83L38.76-41.83Q38.76-44.74 38.55-46.07L38.55-46.07L38.55-46.07Q38.35-47.39 37.85-48.47L37.85-48.47L37.85-48.47Q36.77-50.71 34.40-50.71L34.40-50.71L34.40-50.71Q32.04-50.71 29.42-48.18L29.42-48.18L29.42-48.18Q26.81-45.65 24.73-41.50L24.73-41.50L24.73-41.50Q20.17-32.20 20.17-21.00L20.17-21.00L20.17-21.00Q20.17-15.85 22.16-12.20L22.16-12.20L22.16-12.20Q24.32-8.22 28.14-8.22L28.14-8.22L28.14-8.22Q29.46-8.22 30.67-8.88L30.67-8.88L30.67-8.88Q31.87-9.54 32.37-10.04L32.37-10.04L35.03-26.73ZM76.03-13.45L76.03-13.45L76.03-13.45Q73.37-15.36 73.37-19.01L73.37-19.01L73.37-19.01Q73.37-21.00 74.37-22.62L74.37-22.62L74.37-22.62Q75.36-24.24 77.36-24.49L77.36-24.49L93.71-24.49L93.71-24.49Q96.45-24.49 97.28-26.15L97.28-26.15L97.28-26.15Q98.60-25.40 99.19-23.82L99.19-23.82L99.19-23.82Q99.77-22.24 99.77-20.58L99.77-20.58L99.77-20.58Q99.77-18.92 98.48-17.31L98.48-17.31L98.48-17.31Q97.19-15.69 95.28-15.52L95.28-15.52L80.10-15.52L80.10-15.52Q78.35-15.52 77.52-14.98L77.52-14.98L77.52-14.98Q76.69-14.44 76.03-13.45ZM156.21-26.73L172.97-28.22L172.97-28.22Q167.00-15.11 167.00 0.08L167.00 0.08L167.00 0.08Q164.75 1.66 161.48 1.66L161.48 1.66L161.48 1.66Q158.20 1.66 156.12 0.12L156.12 0.12L156.12 0.12Q154.05-1.41 153.63-2.99L153.63-2.99L153.63-2.99Q151.56-0.83 148.20 0.42L148.20 0.42L148.20 0.42Q144.84 1.66 141.27 1.66L141.27 1.66L141.27 1.66Q137.70 1.66 134.58 0.50L134.58 0.50L134.58 0.50Q131.47-0.66 129.06-3.24L129.06-3.24L129.06-3.24Q123.75-8.88 123.75-19.59L123.75-19.59L123.75-19.59Q123.75-36.19 132.63-46.15L132.63-46.15L132.63-46.15Q141.76-56.44 157.95-56.44L157.95-56.44L157.95-56.44Q169.15-56.44 173.14-50.63L173.14-50.63L173.14-50.63Q174.38-48.80 174.38-46.60L174.38-46.60L174.38-46.60Q174.38-44.41 173.43-42.54L173.43-42.54L173.43-42.54Q172.47-40.67 170.98-39.18L170.98-39.18L170.98-39.18Q167.41-35.86 163.01-35.86L163.01-35.86L163.01-35.86Q161.27-35.86 159.61-36.44L159.61-36.44L159.61-36.44Q159.94-38.93 159.94-41.83L159.94-41.83L159.94-41.83Q159.94-44.74 159.73-46.07L159.73-46.07L159.73-46.07Q159.53-47.39 159.03-48.47L159.03-48.47L159.03-48.47Q157.95-50.71 155.58-50.71L155.58-50.71L155.58-50.71Q153.22-50.71 150.60-48.18L150.60-48.18L150.60-48.18Q147.99-45.65 145.91-41.50L145.91-41.50L145.91-41.50Q141.35-32.20 141.35-21.00L141.35-21.00L141.35-21.00Q141.35-15.85 143.34-12.20L143.34-12.20L143.34-12.20Q145.50-8.22 149.32-8.22L149.32-8.22L149.32-8.22Q150.65-8.22 151.85-8.88L151.85-8.88L151.85-8.88Q153.05-9.54 153.55-10.04L153.55-10.04L156.21-26.73ZM212.48-12.78L212.48-12.78L212.48-12.78Q214.06-10.79 214.06-7.55L214.06-7.55L214.06-7.55Q214.06-3.07 210.74-0.71L210.74-0.71L210.74-0.71Q207.42 1.66 202.19 1.66L202.19 1.66L202.19 1.66Q199.20 1.66 194.64 1.00L194.64 1.00L194.64 1.00Q185.67-0.42 182.93-0.42L182.93-0.42L182.93-0.42Q180.19-0.42 179.11-0.29L179.11-0.29L179.11-0.29Q178.04-0.17 176.29 0L176.29 0L186.50-54.78L222.27-54.78L222.27-54.78Q222.27-49.72 219.83-47.06L219.83-47.06L219.83-47.06Q217.38-44.41 212.56-44.41L212.56-44.41L212.56-44.41Q207.75-44.41 202.85-46.65L202.85-46.65L200.28-32.12L215.05-32.12L215.05-32.12Q215.05-27.72 212.90-25.27L212.90-25.27L212.90-25.27Q210.74-22.83 207.13-22.83L207.13-22.83L207.13-22.83Q203.52-22.83 201.28-23.66L201.28-23.66L201.28-23.66Q199.03-24.49 198.79-24.73L198.79-24.73L195.80-9.05L195.80-9.05Q197.79-8.80 201.52-8.80L201.52-8.80L201.52-8.80Q207.92-8.80 212.48-12.78ZM238.71 0L220.95 0L231.07-54.53L231.07-54.53Q239.29-55.44 251.28-55.44L251.28-55.44L251.28-55.44Q263.28-55.44 268.84-51.96L268.84-51.96L268.84-51.96Q274.40-48.47 274.40-41.46L274.40-41.46L274.40-41.46Q274.40-34.45 270.79-30.05L270.79-30.05L270.79-30.05Q267.18-25.65 260.95-24.24L260.95-24.24L260.95-24.24Q262.36-17.35 265.60-11.79L265.60-11.79L265.60-11.79Q268.59-6.56 272.07-4.90L272.07-4.90L272.07-4.90Q270.83-1.41 268.30 0.12L268.30 0.12L268.30 0.12Q265.77 1.66 262.16 1.66L262.16 1.66L262.16 1.66Q258.55 1.66 255.72-0.46L255.72-0.46L255.72-0.46Q252.90-2.57 250.66-6.47L250.66-6.47L250.66-6.47Q245.93-14.94 245.43-28.30L245.43-28.30L246.01-28.30L246.01-28.30Q252.15-28.47 255.23-31.66L255.23-31.66L255.23-31.66Q258.30-34.86 258.30-41.58L258.30-41.58L258.30-41.58Q258.30-49.97 251.24-50.30L251.24-50.30L249.42-50.30L249.42-50.30Q248.67-50.30 248.25-50.22L248.25-50.22L238.71 0ZM284.86-40.42L284.86-40.42L284.86-40.42Q282.03-42.58 282.03-47.19L282.03-47.19L282.03-47.19Q282.03-51.79 285.06-54.20L285.06-54.20L285.06-54.20Q288.09-56.61 293.32-56.61L293.32-56.61L293.32-56.61Q296.64-56.61 304.53-55.44L304.53-55.44L310.17-54.61L310.17-54.61Q312.99-54.28 315.94-54.28L315.94-54.28L315.94-54.28Q318.89-54.28 320.88-55.53L320.88-55.53L320.88-55.53Q323.87-52.87 323.87-49.05L323.87-49.05L323.87-49.05Q323.87-45.23 320.46-42.50L320.46-42.50L320.46-42.50Q316.98-39.59 312.50-39.59L312.50-39.59L312.50-39.59Q310.34-39.59 306.85-40.17L306.85-40.17L306.85-40.17Q302.78-27.39 302.78-18.51L302.78-18.51L302.78-18.51Q302.78-9.63 307.27-4.98L307.27-4.98L307.27-4.98Q305.19-1.25 302.12 0.21L302.12 0.21L302.12 0.21Q299.05 1.66 294.44 1.66L294.44 1.66L294.44 1.66Q289.84 1.66 286.97-0.87L286.97-0.87L286.97-0.87Q284.11-3.40 284.11-8.63L284.11-8.63L284.11-8.63Q284.11-14.69 287.43-24.65L287.43-24.65L287.43-24.65Q290.75-34.53 295.73-42.08L295.73-42.08L295.73-42.08Q293.32-42.33 290.83-42.33L290.83-42.33L290.83-42.33Q285.69-42.33 284.86-40.42Z" fill="#ccc"></path></g></g><style>text {
  font-size: 64px;
  font-family: Arial Black;
  dominant-baseline: central;
  text-anchor: middle;
}</style></svg>