<svg width="790.4486328125px" height="249.2px" xmlns="http://www.w3.org/2000/svg" viewBox="-145.22431640625 -49.599999999999994 790.4486328125 249.2" style="background: rgba(0, 0, 0, 0);" preserveAspectRatio="xMidYMid"><defs><filter id="editing-hole" x="-100%" y="-100%" width="300%" height="300%"><feFlood flood-color="#000" result="black"></feFlood><feMorphology operator="dilate" radius="2" in="SourceGraphic" result="erode"></feMorphology><feGaussianBlur in="erode" stdDeviation="4" result="blur"></feGaussianBlur><feOffset in="blur" dx="2" dy="2" result="offset"></feOffset><feComposite operator="atop" in="offset" in2="black" result="merge"></feComposite><feComposite operator="in" in="merge" in2="SourceGraphic" result="inner-shadow"></feComposite></filter></defs><g filter="url(#editing-hole)"><g transform="translate(-31.23236656188965, 125.89500427246094)"><path d="M61.19-46.69L90.48-49.30L90.48-49.30Q80.04-26.39 80.04 0.14L80.04 0.14L80.04 0.14Q76.13 2.90 70.40 2.90L70.40 2.90L70.40 2.90Q64.67 2.90 61.04 0.22L61.04 0.22L61.04 0.22Q57.42-2.46 56.69-5.22L56.69-5.22L56.69-5.22Q53.07-1.45 47.20 0.72L47.20 0.72L47.20 0.72Q41.32 2.90 35.09 2.90L35.09 2.90L35.09 2.90Q28.85 2.90 23.42 0.87L23.42 0.87L23.42 0.87Q17.98-1.16 13.77-5.65L13.77-5.65L13.77-5.65Q4.50-15.51 4.50-34.22L4.50-34.22L4.50-34.22Q4.50-63.22 20.01-80.62L20.01-80.62L20.01-80.62Q35.96-98.60 64.23-98.60L64.23-98.60L64.23-98.60Q83.81-98.60 90.77-88.45L90.77-88.45L90.77-88.45Q92.94-85.26 92.94-81.42L92.94-81.42L92.94-81.42Q92.94-77.57 91.28-74.31L91.28-74.31L91.28-74.31Q89.61-71.05 87-68.44L87-68.44L87-68.44Q80.77-62.64 73.08-62.64L73.08-62.64L73.08-62.64Q70.03-62.64 67.13-63.65L67.13-63.65L67.13-63.65Q67.71-68.00 67.71-73.08L67.71-73.08L67.71-73.08Q67.71-78.16 67.35-80.47L67.35-80.47L67.35-80.47Q66.99-82.79 66.12-84.68L66.12-84.68L66.12-84.68Q64.23-88.59 60.10-88.59L60.10-88.59L60.10-88.59Q55.97-88.59 51.40-84.17L51.40-84.17L51.40-84.17Q46.83-79.75 43.21-72.50L43.21-72.50L43.21-72.50Q35.23-56.26 35.23-36.68L35.23-36.68L35.23-36.68Q35.23-27.69 38.71-21.31L38.71-21.31L38.71-21.31Q42.48-14.35 49.15-14.35L49.15-14.35L49.15-14.35Q51.47-14.35 53.58-15.51L53.58-15.51L53.58-15.51Q55.68-16.67 56.55-17.54L56.55-17.54L61.19-46.69ZM132.82-23.49L132.82-23.49L132.82-23.49Q128.18-26.82 128.18-33.20L128.18-33.20L128.18-33.20Q128.18-36.68 129.92-39.51L129.92-39.51L129.92-39.51Q131.66-42.34 135.14-42.77L135.14-42.77L163.70-42.77L163.70-42.77Q168.49-42.77 169.94-45.67L169.94-45.67L169.94-45.67Q172.26-44.37 173.27-41.61L173.27-41.61L173.27-41.61Q174.29-38.86 174.29-35.96L174.29-35.96L174.29-35.96Q174.29-33.06 172.04-30.23L172.04-30.23L172.04-30.23Q169.79-27.40 166.46-27.11L166.46-27.11L139.92-27.11L139.92-27.11Q136.88-27.11 135.43-26.17L135.43-26.17L135.43-26.17Q133.98-25.23 132.82-23.49ZM272.89-46.69L302.18-49.30L302.18-49.30Q291.74-26.39 291.74 0.14L291.74 0.14L291.74 0.14Q287.82 2.90 282.10 2.90L282.10 2.90L282.10 2.90Q276.37 2.90 272.75 0.22L272.75 0.22L272.75 0.22Q269.12-2.46 268.39-5.22L268.39-5.22L268.39-5.22Q264.77-1.45 258.90 0.72L258.90 0.72L258.90 0.72Q253.02 2.90 246.79 2.90L246.79 2.90L246.79 2.90Q240.55 2.90 235.12 0.87L235.12 0.87L235.12 0.87Q229.68-1.16 225.47-5.65L225.47-5.65L225.47-5.65Q216.19-15.51 216.19-34.22L216.19-34.22L216.19-34.22Q216.19-63.22 231.71-80.62L231.71-80.62L231.71-80.62Q247.66-98.60 275.94-98.60L275.94-98.60L275.94-98.60Q295.51-98.60 302.47-88.45L302.47-88.45L302.47-88.45Q304.64-85.26 304.64-81.42L304.64-81.42L304.64-81.42Q304.64-77.57 302.98-74.31L302.98-74.31L302.98-74.31Q301.31-71.05 298.70-68.44L298.70-68.44L298.70-68.44Q292.46-62.64 284.78-62.64L284.78-62.64L284.78-62.64Q281.74-62.64 278.83-63.65L278.83-63.65L278.83-63.65Q279.41-68.00 279.41-73.08L279.41-73.08L279.41-73.08Q279.41-78.16 279.05-80.47L279.05-80.47L279.05-80.47Q278.69-82.79 277.82-84.68L277.82-84.68L277.82-84.68Q275.94-88.59 271.80-88.59L271.80-88.59L271.80-88.59Q267.67-88.59 263.10-84.17L263.10-84.17L263.10-84.17Q258.53-79.75 254.91-72.50L254.91-72.50L254.91-72.50Q246.94-56.26 246.94-36.68L246.94-36.68L246.94-36.68Q246.94-27.69 250.41-21.31L250.41-21.31L250.41-21.31Q254.19-14.35 260.85-14.35L260.85-14.35L260.85-14.35Q263.17-14.35 265.28-15.51L265.28-15.51L265.28-15.51Q267.38-16.67 268.25-17.54L268.25-17.54L272.89-46.69ZM371.20-22.33L371.20-22.33L371.20-22.33Q373.95-18.85 373.95-13.19L373.95-13.19L373.95-13.19Q373.95-5.36 368.15-1.23L368.15-1.23L368.15-1.23Q362.36 2.90 353.22 2.90L353.22 2.90L353.22 2.90Q348 2.90 340.02 1.74L340.02 1.74L340.02 1.74Q324.37-0.72 319.58-0.72L319.58-0.72L319.58-0.72Q314.80-0.72 312.91-0.51L312.91-0.51L312.91-0.51Q311.02-0.29 307.98 0L307.98 0L325.81-95.70L388.31-95.70L388.31-95.70Q388.31-86.85 384.03-82.21L384.03-82.21L384.03-82.21Q379.75-77.57 371.34-77.57L371.34-77.57L371.34-77.57Q362.94-77.57 354.38-81.49L354.38-81.49L349.88-56.11L375.69-56.11L375.69-56.11Q375.69-48.43 371.92-44.15L371.92-44.15L371.92-44.15Q368.15-39.88 361.85-39.88L361.85-39.88L361.85-39.88Q355.54-39.88 351.63-41.32L351.63-41.32L351.63-41.32Q347.71-42.77 347.27-43.21L347.27-43.21L342.06-15.80L342.06-15.80Q345.53-15.37 352.06-15.37L352.06-15.37L352.06-15.37Q363.22-15.37 371.20-22.33ZM417.02 0L385.99 0L403.68-95.26L403.68-95.26Q418.03-96.86 438.99-96.86L438.99-96.86L438.99-96.86Q459.94-96.86 469.65-90.77L469.65-90.77L469.65-90.77Q479.37-84.68 479.37-72.43L479.37-72.43L479.37-72.43Q479.37-60.17 473.06-52.49L473.06-52.49L473.06-52.49Q466.75-44.80 455.88-42.34L455.88-42.34L455.88-42.34Q458.34-30.30 464-20.59L464-20.59L464-20.59Q469.22-11.46 475.31-8.55L475.31-8.55L475.31-8.55Q473.13-2.46 468.71 0.22L468.71 0.22L468.71 0.22Q464.29 2.90 457.98 2.90L457.98 2.90L457.98 2.90Q451.67 2.90 446.75-0.80L446.75-0.80L446.75-0.80Q441.81-4.50 437.90-11.31L437.90-11.31L437.90-11.31Q429.63-26.10 428.76-49.44L428.76-49.44L429.78-49.44L429.78-49.44Q440.51-49.73 445.88-55.32L445.88-55.32L445.88-55.32Q451.24-60.90 451.24-72.64L451.24-72.64L451.24-72.64Q451.24-87.29 438.91-87.87L438.91-87.87L435.72-87.87L435.72-87.87Q434.42-87.87 433.69-87.72L433.69-87.72L417.02 0ZM497.64-70.61L497.64-70.61L497.64-70.61Q492.71-74.38 492.71-82.43L492.71-82.43L492.71-82.43Q492.71-90.48 498.00-94.68L498.00-94.68L498.00-94.68Q503.29-98.89 512.43-98.89L512.43-98.89L512.43-98.89Q518.23-98.89 532.00-96.86L532.00-96.86L541.87-95.41L541.87-95.41Q546.79-94.83 551.94-94.83L551.94-94.83L551.94-94.83Q557.09-94.83 560.57-97.00L560.57-97.00L560.57-97.00Q565.79-92.36 565.79-85.69L565.79-85.69L565.79-85.69Q565.79-79.02 559.85-74.24L559.85-74.24L559.85-74.24Q553.75-69.16 545.92-69.16L545.92-69.16L545.92-69.16Q542.15-69.16 536.06-70.18L536.06-70.18L536.06-70.18Q528.96-47.85 528.96-32.34L528.96-32.34L528.96-32.34Q528.96-16.82 536.79-8.70L536.79-8.70L536.79-8.70Q533.16-2.17 527.80 0.36L527.80 0.36L527.80 0.36Q522.43 2.90 514.39 2.90L514.39 2.90L514.39 2.90Q506.34 2.90 501.34-1.52L501.34-1.52L501.34-1.52Q496.33-5.94 496.33-15.08L496.33-15.08L496.33-15.08Q496.33-25.66 502.13-43.06L502.13-43.06L502.13-43.06Q507.94-60.32 516.63-73.52L516.63-73.52L516.63-73.52Q512.43-73.95 508.08-73.95L508.08-73.95L508.08-73.95Q499.09-73.95 497.64-70.61Z" fill="#ccc"></path></g></g><style>text {
  font-size: 64px;
  font-family: Arial Black;
  dominant-baseline: central;
  text-anchor: middle;
}</style></svg>