<svg width="360.66494140624997px" height="122px" xmlns="http://www.w3.org/2000/svg" viewBox="69.66752929687502 14 360.66494140624997 122" style="background: rgba(0, 0, 0, 0);" preserveAspectRatio="xMidYMid"><defs><filter id="editing-hole" x="-100%" y="-100%" width="300%" height="300%"><feFlood flood-color="#000" result="black"></feFlood><feMorphology operator="dilate" radius="2" in="SourceGraphic" result="erode"></feMorphology><feGaussianBlur in="erode" stdDeviation="4" result="blur"></feGaussianBlur><feOffset in="blur" dx="2" dy="2" result="offset"></feOffset><feComposite operator="atop" in="offset" in2="black" result="merge"></feComposite><feComposite operator="in" in="merge" in2="SourceGraphic" result="inner-shadow"></feComposite></filter></defs><g filter="url(#editing-hole)"><g transform="translate(126.09443998336792, 97.46500015258789)"><path d="M27.01-20.61L39.94-21.76L39.94-21.76Q35.33-11.65 35.33 0.06L35.33 0.06L35.33 0.06Q33.60 1.28 31.07 1.28L31.07 1.28L31.07 1.28Q28.54 1.28 26.94 0.10L26.94 0.10L26.94 0.10Q25.34-1.09 25.02-2.30L25.02-2.30L25.02-2.30Q23.42-0.64 20.83 0.32L20.83 0.32L20.83 0.32Q18.24 1.28 15.49 1.28L15.49 1.28L15.49 1.28Q12.74 1.28 10.34 0.38L10.34 0.38L10.34 0.38Q7.94-0.51 6.08-2.50L6.08-2.50L6.08-2.50Q1.98-6.85 1.98-15.10L1.98-15.10L1.98-15.10Q1.98-27.90 8.83-35.58L8.83-35.58L8.83-35.58Q15.87-43.52 28.35-43.52L28.35-43.52L28.35-43.52Q36.99-43.52 40.06-39.04L40.06-39.04L40.06-39.04Q41.02-37.63 41.02-35.94L41.02-35.94L41.02-35.94Q41.02-34.24 40.29-32.80L40.29-32.80L40.29-32.80Q39.55-31.36 38.40-30.21L38.40-30.21L38.40-30.21Q35.65-27.65 32.26-27.65L32.26-27.65L32.26-27.65Q30.91-27.65 29.63-28.10L29.63-28.10L29.63-28.10Q29.89-30.02 29.89-32.26L29.89-32.26L29.89-32.26Q29.89-34.50 29.73-35.52L29.73-35.52L29.73-35.52Q29.57-36.54 29.18-37.38L29.18-37.38L29.18-37.38Q28.35-39.10 26.53-39.10L26.53-39.10L26.53-39.10Q24.70-39.10 22.69-37.15L22.69-37.15L22.69-37.15Q20.67-35.20 19.07-32L19.07-32L19.07-32Q15.55-24.83 15.55-16.19L15.55-16.19L15.55-16.19Q15.55-12.22 17.09-9.41L17.09-9.41L17.09-9.41Q18.75-6.34 21.70-6.34L21.70-6.34L21.70-6.34Q22.72-6.34 23.65-6.85L23.65-6.85L23.65-6.85Q24.58-7.36 24.96-7.74L24.96-7.74L27.01-20.61ZM58.62-10.37L58.62-10.37L58.62-10.37Q56.58-11.84 56.58-14.66L56.58-14.66L56.58-14.66Q56.58-16.19 57.34-17.44L57.34-17.44L57.34-17.44Q58.11-18.69 59.65-18.88L59.65-18.88L72.26-18.88L72.26-18.88Q74.37-18.88 75.01-20.16L75.01-20.16L75.01-20.16Q76.03-19.58 76.48-18.37L76.48-18.37L76.48-18.37Q76.93-17.15 76.93-15.87L76.93-15.87L76.93-15.87Q76.93-14.59 75.94-13.34L75.94-13.34L75.94-13.34Q74.94-12.10 73.47-11.97L73.47-11.97L61.76-11.97L61.76-11.97Q60.42-11.97 59.78-11.55L59.78-11.55L59.78-11.55Q59.14-11.14 58.62-10.37ZM120.45-20.61L133.38-21.76L133.38-21.76Q128.77-11.65 128.77 0.06L128.77 0.06L128.77 0.06Q127.04 1.28 124.51 1.28L124.51 1.28L124.51 1.28Q121.98 1.28 120.38 0.10L120.38 0.10L120.38 0.10Q118.78-1.09 118.46-2.30L118.46-2.30L118.46-2.30Q116.86-0.64 114.27 0.32L114.27 0.32L114.27 0.32Q111.68 1.28 108.93 1.28L108.93 1.28L108.93 1.28Q106.18 1.28 103.78 0.38L103.78 0.38L103.78 0.38Q101.38-0.51 99.52-2.50L99.52-2.50L99.52-2.50Q95.42-6.85 95.42-15.10L95.42-15.10L95.42-15.10Q95.42-27.90 102.27-35.58L102.27-35.58L102.27-35.58Q109.31-43.52 121.79-43.52L121.79-43.52L121.79-43.52Q130.43-43.52 133.50-39.04L133.50-39.04L133.50-39.04Q134.46-37.63 134.46-35.94L134.46-35.94L134.46-35.94Q134.46-34.24 133.73-32.80L133.73-32.80L133.73-32.80Q132.99-31.36 131.84-30.21L131.84-30.21L131.84-30.21Q129.09-27.65 125.70-27.65L125.70-27.65L125.70-27.65Q124.35-27.65 123.07-28.10L123.07-28.10L123.07-28.10Q123.33-30.02 123.33-32.26L123.33-32.26L123.33-32.26Q123.33-34.50 123.17-35.52L123.17-35.52L123.17-35.52Q123.01-36.54 122.62-37.38L122.62-37.38L122.62-37.38Q121.79-39.10 119.97-39.10L119.97-39.10L119.97-39.10Q118.14-39.10 116.13-37.15L116.13-37.15L116.13-37.15Q114.11-35.20 112.51-32L112.51-32L112.51-32Q108.99-24.83 108.99-16.19L108.99-16.19L108.99-16.19Q108.99-12.22 110.53-9.41L110.53-9.41L110.53-9.41Q112.19-6.34 115.14-6.34L115.14-6.34L115.14-6.34Q116.16-6.34 117.09-6.85L117.09-6.85L117.09-6.85Q118.02-7.36 118.40-7.74L118.40-7.74L120.45-20.61ZM163.84-9.86L163.84-9.86L163.84-9.86Q165.06-8.32 165.06-5.82L165.06-5.82L165.06-5.82Q165.06-2.37 162.50-0.54L162.50-0.54L162.50-0.54Q159.94 1.28 155.90 1.28L155.90 1.28L155.90 1.28Q153.60 1.28 150.08 0.77L150.08 0.77L150.08 0.77Q143.17-0.32 141.06-0.32L141.06-0.32L141.06-0.32Q138.94-0.32 138.11-0.22L138.11-0.22L138.11-0.22Q137.28-0.13 135.94 0L135.94 0L143.81-42.24L171.39-42.24L171.39-42.24Q171.39-38.34 169.50-36.29L169.50-36.29L169.50-36.29Q167.62-34.24 163.90-34.24L163.90-34.24L163.90-34.24Q160.19-34.24 156.42-35.97L156.42-35.97L154.43-24.77L165.82-24.77L165.82-24.77Q165.82-21.38 164.16-19.49L164.16-19.49L164.16-19.49Q162.50-17.60 159.71-17.60L159.71-17.60L159.71-17.60Q156.93-17.60 155.20-18.24L155.20-18.24L155.20-18.24Q153.47-18.88 153.28-19.07L153.28-19.07L150.98-6.98L150.98-6.98Q152.51-6.78 155.39-6.78L155.39-6.78L155.39-6.78Q160.32-6.78 163.84-9.86ZM184.06 0L170.37 0L178.18-42.05L178.18-42.05Q184.51-42.75 193.76-42.75L193.76-42.75L193.76-42.75Q203.01-42.75 207.30-40.06L207.30-40.06L207.30-40.06Q211.58-37.38 211.58-31.97L211.58-31.97L211.58-31.97Q211.58-26.56 208.80-23.17L208.80-23.17L208.80-23.17Q206.02-19.78 201.22-18.69L201.22-18.69L201.22-18.69Q202.30-13.38 204.80-9.09L204.80-9.09L204.80-9.09Q207.10-5.06 209.79-3.78L209.79-3.78L209.79-3.78Q208.83-1.09 206.88 0.10L206.88 0.10L206.88 0.10Q204.93 1.28 202.14 1.28L202.14 1.28L202.14 1.28Q199.36 1.28 197.18-0.35L197.18-0.35L197.18-0.35Q195.01-1.98 193.28-4.99L193.28-4.99L193.28-4.99Q189.63-11.52 189.25-21.82L189.25-21.82L189.70-21.82L189.70-21.82Q194.43-21.95 196.80-24.42L196.80-24.42L196.80-24.42Q199.17-26.88 199.17-32.06L199.17-32.06L199.17-32.06Q199.17-38.53 193.73-38.78L193.73-38.78L192.32-38.78L192.32-38.78Q191.74-38.78 191.42-38.72L191.42-38.72L184.06 0ZM219.65-31.17L219.65-31.17L219.65-31.17Q217.47-32.83 217.47-36.38L217.47-36.38L217.47-36.38Q217.47-39.94 219.81-41.79L219.81-41.79L219.81-41.79Q222.14-43.65 226.18-43.65L226.18-43.65L226.18-43.65Q228.74-43.65 234.82-42.75L234.82-42.75L239.17-42.11L239.17-42.11Q241.34-41.86 243.62-41.86L243.62-41.86L243.62-41.86Q245.89-41.86 247.42-42.82L247.42-42.82L247.42-42.82Q249.73-40.77 249.73-37.82L249.73-37.82L249.73-37.82Q249.73-34.88 247.10-32.77L247.10-32.77L247.10-32.77Q244.42-30.53 240.96-30.53L240.96-30.53L240.96-30.53Q239.30-30.53 236.61-30.98L236.61-30.98L236.61-30.98Q233.47-21.12 233.47-14.27L233.47-14.27L233.47-14.27Q233.47-7.42 236.93-3.84L236.93-3.84L236.93-3.84Q235.33-0.96 232.96 0.16L232.96 0.16L232.96 0.16Q230.59 1.28 227.04 1.28L227.04 1.28L227.04 1.28Q223.49 1.28 221.28-0.67L221.28-0.67L221.28-0.67Q219.07-2.62 219.07-6.66L219.07-6.66L219.07-6.66Q219.07-11.33 221.63-19.01L221.63-19.01L221.63-19.01Q224.19-26.62 228.03-32.45L228.03-32.45L228.03-32.45Q226.18-32.64 224.26-32.64L224.26-32.64L224.26-32.64Q220.29-32.64 219.65-31.17Z" fill="#ccc"></path></g></g><style>text {
  font-size: 64px;
  font-family: Arial Black;
  dominant-baseline: central;
  text-anchor: middle;
}</style></svg>